<?xml version="1.0" encoding="UTF-8"?>
<svg width="56px" height="56px" viewBox="0 0 56 56" version="1.1" xmlns="http://www.w3.org/2000/svg" xmlns:xlink="http://www.w3.org/1999/xlink">
    <title>Cerror_31</title>
    <defs>
        <linearGradient x1="16.9668064%" y1="10.3461471%" x2="64.9905985%" y2="89.9926918%" id="linearGradient-1">
            <stop stop-color="#9E9E9E" offset="0%"></stop>
            <stop stop-color="#656565" offset="100%"></stop>
        </linearGradient>
    </defs>
    <g id="2021/1/11" stroke="none" stroke-width="1" fill="none" fill-rule="evenodd">
        <g id="button-logic" transform="translate(-1246.000000, -168.000000)" fill-rule="nonzero">
            <g id="Cerror_31" transform="translate(1246.000000, 168.000000)">
                <rect id="矩形" fill="#8B8B8B" opacity="0" x="0" y="0" width="56" height="56"></rect>
                <path d="M33.1334556,25.8249489 L27.1265069,22.1468801 L25.7050984,24.4612927 L31.7120471,28.1393615 C32.3274461,28.5142311 32.7576809,29.1118494 32.9319532,29.8235584 C33.1007795,30.5352674 32.9864133,31.2632751 32.6106386,31.8771921 L22.698901,47.9911537 C22.3231264,48.6050706 21.7240653,49.0342692 21.010638,49.2081218 C20.2972107,49.3765415 19.5674455,49.2624507 18.9520464,48.8875811 L9.01852469,42.8027405 C8.40312559,42.4278709 7.97289083,41.8302526 7.79861852,41.1185436 C7.62979222,40.4068346 7.74415842,39.6788269 8.11993309,39.0649099 L14.4645344,28.7478455 L12.1445342,27.3298604 L5.79993296,37.6469248 C4.23148217,40.1949517 5.04293762,43.5579127 7.59167015,45.1171531 L17.5306378,51.2019936 C20.0848164,52.7666669 23.4558964,51.9571658 25.0189011,49.4145717 L34.9306388,33.3006101 C36.4936436,30.7471503 35.6876341,27.3841893 33.1334556,25.8249489 Z M47.3584329,27.5308774 L40.7524231,29.8398571 L39.9627517,27.2375012 L46.4598413,24.9665518 C47.1405925,24.7275045 47.6906395,24.2331112 48.006508,23.5757311 C48.3223766,22.918351 48.3659447,22.1794775 48.1263202,21.5003658 L44.2705454,10.5313542 C44.030921,9.85224254 43.5353341,9.30352032 42.8763669,8.9884125 C42.2173997,8.67330469 41.4767424,8.62984154 40.7959912,8.86888885 L22.9112954,15.1221491 C22.2305442,15.3611964 21.6804972,15.8555897 21.3646286,16.5129698 C21.0487601,17.1703498 21.005192,17.9092233 21.2448164,18.588335 L22.5627508,22.3370314 L19.9922342,23.2334588 L18.6742999,19.4847624 C17.6831261,16.6650908 19.1862248,13.54661 22.0127038,12.5578234 L39.8973996,6.3045632 C42.7238786,5.31577662 45.8498882,6.81525517 46.841062,9.63492681 L50.6968368,20.6039384 C51.6825646,23.429043 50.1849119,26.5420908 47.3584329,27.5308774 Z M15.1126095,14.4213058 L12.542093,15.3123003 L10.3636891,9.04274144 L12.9342057,8.15174693 L15.1126095,14.4213058 L15.1126095,14.4213058 Z M12.7544873,19.9030952 L12.4658488,22.6032432 L5.85983907,21.896967 L6.14847758,19.1968191 L12.7544873,19.9030952 Z" id="形状" fill="url(#linearGradient-1)"></path>
            </g>
        </g>
    </g>
</svg>