<?xml version="1.0" encoding="UTF-8"?>
<svg width="58px" height="58px" viewBox="0 0 58 58" version="1.1" xmlns="http://www.w3.org/2000/svg" xmlns:xlink="http://www.w3.org/1999/xlink">
    <title>Disconnect_30</title>
    <defs>
        <linearGradient x1="50%" y1="0%" x2="50%" y2="100%" id="linearGradient-1">
            <stop stop-color="#7C0000" offset="0%"></stop>
            <stop stop-color="#656565" offset="100%"></stop>
        </linearGradient>
        <linearGradient x1="22.4226623%" y1="20.5488939%" x2="80.4147555%" y2="88.7002696%" id="linearGradient-2">
            <stop stop-color="#AE1717" offset="0%"></stop>
            <stop stop-color="#660000" offset="98.6011402%"></stop>
        </linearGradient>
    </defs>
    <g id="2021/1/11" stroke="none" stroke-width="1" fill="none" fill-rule="evenodd">
        <g id="button-logic" transform="translate(-967.000000, -171.000000)" fill-rule="nonzero">
            <g id="Disconnect_30" transform="translate(967.000000, 171.000000)">
                <rect id="矩形" fill="url(#linearGradient-1)" opacity="0" x="0" y="0" width="58" height="58"></rect>
                <path d="M29,52 C25.8938725,52 22.8835784,51.3890395 20.0480392,50.1840896 C17.3083333,49.018739 14.8504902,47.3555687 12.7365196,45.239835 C10.622549,43.1184443 8.96519608,40.6519741 7.80955882,37.9026517 C6.60882353,35.0571597 6,32.0362994 6,28.9192693 C6,25.2648203 6.82867647,21.7744255 8.45784314,18.5329405 C10.0080882,15.4441956 12.279902,12.7005303 15.0252451,10.5904537 C16.017402,9.82675309 17.0772059,9.14225103 18.1764706,8.55391868 C19.1348039,8.03912787 20.3355392,8.40117855 20.8485294,9.3685327 C21.3615196,10.3302298 21.0007353,11.5351797 20.0367647,12.0499705 C19.1235294,12.5364761 18.2497549,13.1078374 17.4267157,13.741426 C15.154902,15.489452 13.2720588,17.7692398 11.9811275,20.3262227 C10.6338235,23.0076606 9.95171569,25.904066 9.95171569,28.9305834 C9.95171569,34.0388922 11.9360294,38.8417207 15.532598,42.4509134 C19.1291667,46.0601061 23.9151961,48.0513848 29.0056373,48.0513848 C34.0960784,48.0513848 38.8821078,46.0601061 42.4786765,42.4509134 C46.0752451,38.8417207 48.0595588,34.0388922 48.0595588,28.9305834 C48.0595588,25.898409 47.3718137,22.9963465 46.0188725,20.3092516 C44.7279412,17.7466117 42.8394608,15.4668238 40.5563725,13.7187979 C39.7615196,13.1078374 38.9159314,12.5591043 38.0365196,12.0839128 C37.0781863,11.5634649 36.717402,10.3641721 37.2360294,9.40247496 C37.7546569,8.44077784 38.9497549,8.07872717 39.9080882,8.59917501 C40.9678922,9.17053624 41.9882353,9.83806718 42.9465686,10.5678256 C45.697549,12.6779022 47.9806373,15.4272245 49.5365196,18.5159694 C51.1713235,21.7631114 52,25.2591632 52,28.9192693 C52,32.0362994 51.3911765,35.0571597 50.1904412,37.9026517 C49.0291667,40.6519741 47.3718137,43.1184443 45.2634804,45.239835 C43.1495098,47.3612257 40.6916667,49.024396 37.9519608,50.1840896 C35.1164216,51.3890395 32.1061275,52 29,52 Z M29,30.7974072 C27.9120098,30.7974072 27.0269608,29.9092516 27.0269608,28.8174425 L27.0269608,5.97996464 C27.0269608,4.88815557 27.9120098,4 29,4 C30.0879902,4 30.9730392,4.88815557 30.9730392,5.97996464 L30.9730392,28.8174425 C30.9730392,29.9092516 30.0879902,30.7974072 29,30.7974072 Z" id="形状" fill="url(#linearGradient-2)"></path>
            </g>
        </g>
    </g>
</svg>