<?xml version="1.0" encoding="UTF-8"?>
<svg width="110px" height="130px" viewBox="0 0 110 130" version="1.1" xmlns="http://www.w3.org/2000/svg" xmlns:xlink="http://www.w3.org/1999/xlink">
    <title>19</title>
    <g id="2021/1/11" stroke="none" stroke-width="1" fill="none" fill-rule="evenodd">
        <g id="00.Connect-check" transform="translate(-140.000000, -110.000000)" fill="#9E9E9E" fill-rule="nonzero">
            <g id="19" transform="translate(140.000000, 110.000000)">
                <path d="M31.9876619,16.3471222 C30.0233008,18.037975 28.431886,20.1234965 27.3155549,22.4698376 C26.3946693,24.7191151 25.7807411,27.0835682 25.4905131,29.4987148 C25.4905131,29.817096 26.9018787,29.817096 27.4128904,29.6946417 C27.9239021,29.5721874 27.4128904,28.5680621 28.629585,24.1841979 C29.4847088,21.4908084 31.0689293,19.0906676 33.2043564,17.2532841 C33.520697,16.7634669 32.5716753,15.9307776 31.9876619,16.3471222 Z M51.6494456,11.963258 C34.1047104,16.56754 33.1070208,30.9436757 40.4071881,41.1563649 C47.7073553,51.3690542 69.4861874,45.4422657 71.140892,30.2334407 C71.9226704,24.9402213 70.0669211,19.5987106 66.1782255,15.9491103 C62.2895299,12.29951 56.8657087,10.8090326 51.6737794,11.963258 L51.6494456,11.963258 Z M66.6391222,29.8905686 C65.4224277,41.2788192 49.2403904,45.5892109 43.8139328,37.9970438 C38.3874751,30.4048767 39.1418257,19.7268611 52.1847911,16.2981405 C56.0467837,15.4411619 60.0805185,16.5508085 62.9724642,19.2657387 C65.86441,21.9806689 67.2445484,25.9535133 66.6634561,29.8905686 L66.6391222,29.8905686 Z M52.9391418,22.7147462 C46.5149946,24.4046157 46.1499863,29.6701509 48.8267142,33.4172527 C51.5034422,37.1643545 59.4849584,35.0336495 60.0933056,29.4252423 C60.3890109,27.4830425 59.7131603,25.5191169 58.2872338,24.1770549 C56.8613074,22.8349929 54.8691025,22.287782 52.9634756,22.7147462 L52.9391418,22.7147462 Z M64.9357499,52.275216 C61.5326451,55.6736952 56.9539712,57.613532 52.1604573,57.6876964 C47.2047285,58.0527111 42.4243909,55.7634484 39.5798358,51.6629445 C38.7768174,51.6629445 37.1464467,53.695686 37.1464467,54.1120307 C37.1464467,54.5283753 41.8185537,61.0429445 51.7467811,61.655216 C61.6750085,62.2674875 66.8581272,56.5611168 67.0527984,55.5325006 C67.2474695,54.5038844 65.7631021,52.1772526 64.9357499,52.275216 L64.9357499,52.275216 Z M100.02522,0.526025692 C96.6658078,1.20291829 94.4871796,4.49194108 95.1584421,7.87328414 L81.6774667,16.9593938 C80.257649,14.8544316 78.6179286,12.9085581 76.7863546,11.1550596 C68.7430737,5.85663567 59.2285083,3.28245794 49.6297326,3.80780113 C41.1317676,4.19351244 33.0628723,7.67516105 26.9262126,13.6041457 L14.4429267,7.99573845 C14.4429267,7.99573845 15.6596212,4.51803612 13.2262322,2.80367581 C9.74773833,0.68074928 5.3155464,1.00499119 2.17864579,3.61187424 C0.505047146,5.22331065 -0.276328316,7.55871276 0.0878942246,9.86078513 C0.452116765,12.1628575 1.91556412,14.1384979 4.00368759,15.14707 C6.23198676,16.3302099 8.97108338,15.8690782 10.6955075,14.0204904 L21.7430939,20.1432058 C20.6487632,21.7178136 19.7651521,23.4305606 19.1150337,25.2373049 C18.1068497,28.1864453 17.3975589,31.2306337 16.9979852,34.3234146 C16.9979852,34.3234146 15.0756079,34.0295242 11.1091837,37.8011169 C7.14275949,41.5727096 7.65377119,47.3035712 10.3061653,49.5322396 C12.9585594,51.7609079 19.4313743,51.5649811 19.4313743,51.5649811 C19.4313743,51.5649811 19.6260454,57.6876964 27.8509005,65.7451899 C36.0757555,73.8026833 51.4791083,73.0924483 51.4791083,73.0924483 L51.4791083,80.0233621 L49.9704071,80.4397068 C47.4585483,81.3474782 45.3182724,83.070744 43.8869344,85.3378791 C41.4535454,88.9135448 39.0201563,101.354902 39.0201563,101.354902 C37.5758392,101.760251 36.2973485,102.618076 35.3700727,103.803989 C34.0560426,105.738767 33.6423664,110.441012 36.6841028,112.37579 C38.2430052,113.317321 40.169027,113.402389 41.8038871,112.601921 C43.4387473,111.801454 44.5610789,110.223836 44.7872884,108.408271 C44.9779894,105.991933 43.6994983,103.699024 41.5508809,102.603936 C41.5508809,102.603936 41.5508809,101.57532 42.0618926,98.6364169 C42.8839019,93.7680943 44.6804122,89.1186965 47.3423469,84.9705161 C49.9704071,81.7132316 51.1871016,83.0357381 51.1871016,83.0357381 C51.1871016,83.0357381 47.1963436,103.510098 47.099008,110.343049 C46.8612717,114.126144 48.593735,117.761816 51.6737794,119.943466 L51.6737794,123.004824 C51.6737794,123.004824 51.0654322,122.588479 47.9263603,123.323205 C46.7022315,123.628516 45.7259673,124.55604 45.3526314,125.768441 C44.9792955,126.980843 45.2632867,128.301461 46.1013185,129.249994 C47.5126841,130.670464 52.2821267,129.764302 53.4014857,129.054067 C54.5208447,128.343832 53.4014857,120.482265 53.4014857,120.482265 L55.8348747,120.89861 C55.8348747,120.89861 56.2485509,127.43767 56.2485509,127.829524 C56.2485509,128.221378 56.7595626,129.15203 59.6066278,129.666338 C62.453693,130.180646 66.4931189,127.829524 65.3980938,124.768166 C64.3030687,121.706808 58.5116027,122.515007 58.5116027,122.515007 L58.3169316,120.065921 C60.575793,117.962725 62.0741476,115.162116 62.5753625,112.106391 C63.1837097,107.208218 58.5116027,85.166443 58.6332722,84.7500984 C58.7549416,84.3337537 59.55796,84.1378268 60.6529851,85.0684796 C62.8345384,88.3062102 64.8017341,91.6851057 66.5417867,95.1832054 C67.6306317,96.3164101 69.1367492,96.945791 70.702882,96.9220566 C72.1142476,96.7261297 80.1444315,88.8645631 80.1444315,88.8645631 C80.1444315,88.8645631 86.7389159,89.5258164 88.4666222,84.6276441 C90.1943284,79.7294718 86.3495737,74.8312995 80.266101,77.7946937 C74.1826283,80.758088 78.6357303,87.297148 78.6357303,87.297148 C78.0872536,88.1834381 77.367301,88.9496784 76.5186818,89.5503072 C75.0099806,90.6768869 71.2382276,94.0321349 70.240538,94.0321349 C69.2428485,94.0321349 66.6634561,89.5258164 64.6194093,85.8521872 C63.2378294,83.4611121 60.9864146,81.7045709 58.3412655,80.9540149 L57.5382471,72.088323 C64.2122243,71.1535533 70.6096713,68.7901858 76.2996768,65.1574092 C81.9332366,61.8137281 85.8814839,56.2095407 87.1525921,49.7526573 C87.1525921,49.7526573 96.8861483,48.4301508 97.2024889,39.9563127 C97.5188295,31.4824746 88.490956,31.8988193 88.490956,31.8988193 C88.490956,31.8988193 88.490956,30.3803859 88.1989494,28.935425 C87.756281,27.3471237 87.1443821,25.8116141 86.3739076,24.3556339 L99.3195374,13.6041457 C100.073529,14.0704401 100.894235,14.4173603 101.752926,14.6327619 C104.792382,15.0328807 107.756461,13.4793147 109.173288,10.7435192 C110.590116,8.00772366 110.157873,4.67248856 108.0912,2.39399368 C106.024527,0.115498794 102.763674,-0.620881927 99.9278847,0.550516554 L100.02522,0.526025692 Z M5.12304656,12.7714564 C3.52174171,11.8866759 2.58818477,10.1359223 2.74075879,8.30381368 C2.89333282,6.47170507 4.1034286,4.90178078 5.82872939,4.29761836 C7.00700061,3.76189185 8.36637933,3.811426 9.50307243,4.43150709 C10.6397655,5.05158818 11.4230271,6.17089261 11.6201954,7.4569395 C11.9800224,9.16739606 11.3568387,10.9365034 10.0068725,12.0368746 C8.6569064,13.1372459 6.80801228,13.3831547 5.22038212,12.673493 L5.12304656,12.7714564 Z M17.6063325,48.3811691 C17.0953208,48.3811691 13.4452372,48.7975137 12.7395543,45.4177748 C11.8507497,42.3618477 13.4988832,39.1412582 16.4869735,38.0950072 C17.0223191,37.9235712 16.8033141,41.5727096 17.2899919,44.1197592 C17.7766697,46.6668088 18.2146798,48.2832056 17.703668,48.2832056 L17.6063325,48.3811691 Z M42.3295654,107.893963 C42.2009565,108.831588 41.6519148,109.657946 40.8400902,110.135759 C40.0282657,110.613573 39.0434686,110.689983 38.1684701,110.343049 C36.6597689,109.436887 36.0514216,105.150986 38.9714885,104.538714 C40.6991947,104.220333 42.3295654,106.057148 42.3295654,107.893963 Z M82.9914968,79.7294718 C84.793532,79.7295574 86.3100849,81.08747 86.5199109,82.8887929 C86.5199109,84.7256075 82.8698273,86.5624221 81.6531328,85.9501506 C80.4364382,85.3378791 79.9497604,80.3417433 82.9914968,79.7294718 Z M89.172305,40.250203 C88.9977099,38.6877129 88.9977099,37.1104478 89.172305,35.5479576 C90.2475315,35.278155 91.3862444,35.4978889 92.2860715,36.1488117 C93.1858987,36.7997344 93.755788,37.8159802 93.844412,38.9276965 C94.5500948,42.9197069 88.3692866,46.0790281 88.0772799,45.6626834 C87.7852732,45.2463388 89.0749694,42.1604902 89.172305,40.2257122 L89.172305,40.250203 Z M13.7372439,13.1143285 C13.5425727,12.6979839 14.5402623,10.6652424 14.5402623,10.6652424 C15.051274,10.6652424 24.5901591,14.9511431 24.2738185,15.7593415 C23.957478,16.56754 23.057124,17.9145374 22.7651173,17.6941196 C22.4731106,17.4737018 13.9562489,13.6041457 13.7372439,13.0898376 L13.7372439,13.1143285 Z M58.6576061,113.526861 C57.6355827,115.559602 52.3794623,117.004563 51.3574389,113.526861 C50.3354155,110.049158 53.7908279,77.2803856 54.885853,77.2803856 C55.2265275,77.1334405 59.7526311,111.567592 58.6576061,113.50237 L58.6576061,113.526861 Z M83.599844,44.3156861 C83.3013504,46.0683761 82.7948243,47.7786514 82.0911428,49.4097852 C80.9439414,47.4883547 79.624407,45.6766371 78.1490525,43.9973049 C77.6380408,43.9973049 76.3240107,44.9279576 76.8350224,45.4177748 C78.5830949,47.4743685 80.0782645,49.7357017 81.2881244,52.1527617 C81.0934533,52.7650333 79.365747,55.6304641 79.365747,55.6304641 C78.0451261,53.3422863 76.5566224,51.1565258 74.912645,49.091404 C74.4989689,49.091404 73.1849388,50.1200202 73.4039438,50.4139106 C75.1579079,52.8233927 76.6892112,55.3892956 77.9787153,58.0795502 C77.6867086,58.5938583 75.5453262,60.7245633 75.3506551,60.3327095 C74.3349146,58.3555744 73.188653,56.4491786 71.9195765,54.6263387 C71.6275698,54.6263387 70.5082108,55.1406468 70.702882,55.6549549 C70.8975531,56.169263 74.4503011,61.6797069 74.0609589,62.1940149 C73.3019546,62.8732803 72.4880062,63.4876795 71.6275698,64.0308296 C71.6275698,64.0308296 69.6078569,59.1326573 69.1941807,59.1326573 C68.7805046,59.1326573 66.9554628,60.06331 67.1744678,60.3572003 C67.3934728,60.6510907 69.802528,64.7410645 69.4131858,65.2553726 C68.9800525,65.6194508 68.5064346,65.9317539 68.0018201,66.1860254 L65.1547549,62.5858687 L63.7433892,63.5165215 C63.7433892,63.5165215 65.9821072,66.9942238 65.568431,67.0921872 L63.5487181,67.7044588 C63.5487181,67.7044588 62.3320236,64.9614823 61.9183474,64.839028 C61.5046713,64.7165737 59.8986345,64.839028 60.1906412,65.1329183 C60.6987001,66.0877203 61.1378439,67.0780751 61.5046713,68.0963126 C55.2522836,69.3992825 48.8009581,69.3992825 42.5485704,68.0963126 C32.0436307,65.7852445 24.0072714,57.2503977 22.2784395,46.5688453 C20.2690353,37.0842897 21.8574961,27.1862813 26.7315415,18.8206992 C30.2842895,13.1143285 36.4650978,10.6652424 42.7432416,8.4120831 C50.0434088,5.76707005 63.4270486,6.77119537 74.0609589,13.9225269 C84.6948691,21.0738585 83.9161846,41.9645633 83.599844,44.3156861 Z M96.6914772,12.7959473 C96.1804655,13.3102554 85.838562,22.1759473 85.5465553,21.68613 C85.2545486,21.1963128 84.0865218,18.502318 84.0865218,18.502318 C84.500198,18.3063911 94.8421015,10.02848 95.4504488,10.6407515 C96.0587961,11.253023 97.178155,12.2816392 96.6914772,12.7714564 L96.6914772,12.7959473 Z M100.438896,11.1550596 C98.895936,10.254009 98.005671,8.53995358 98.1512331,6.75054862 C98.2967951,4.96114366 99.4522132,3.41565142 101.120245,2.77918495 C102.298517,2.24345843 103.657895,2.29299259 104.794588,2.91307368 C105.931281,3.53315477 106.714543,4.65245919 106.911711,5.93850608 C107.290312,7.66838003 106.660224,9.46456585 105.286407,10.5717491 C103.912589,11.6789323 102.033338,11.9050664 100.438896,11.1550596 L100.438896,11.1550596 Z" id="形状"></path>
            </g>
        </g>
    </g>
</svg>
