<?xml version="1.0" encoding="UTF-8"?>
<svg width="136px" height="130px" viewBox="0 0 136 130" version="1.1" xmlns="http://www.w3.org/2000/svg" xmlns:xlink="http://www.w3.org/1999/xlink">
    <title>28</title>
    <g id="2021/1/11" stroke="none" stroke-width="1" fill="none" fill-rule="evenodd">
        <g id="04.Oops!" transform="translate(-126.000000, -133.000000)" fill="#9E9E9E" fill-rule="nonzero">
            <g id="28" transform="translate(126.000000, 133.000000)">
                <path d="M116.828203,19.2040431 C98.2667628,4.0386957 76.4728546,-2.01743315 56.8507611,0.585200737 C15.6620423,6.06574709 -2.01551939,41.1012032 0.181548989,61.2716158 C2.37861737,81.4420284 5.86362239,90.5262217 27.556516,112.898863 C49.2494095,135.271504 85.3368891,132.768972 104.428656,121.983056 C123.520422,111.197141 132.839023,96.9577304 135.212867,73.033519 C137.586711,49.1093075 135.44015,34.3693906 116.828203,19.2040431 Z M130.414671,67.9283525 C129.765639,78.8201812 126.805448,89.453852 121.727413,99.1349338 C118.138953,105.326971 113.329413,110.739847 107.585363,115.051041 C105.568782,116.522899 103.401944,117.781051 101.120426,118.80484 C101.120426,118.80484 92.685704,109.420343 92.2816455,109.345267 C91.8775869,109.270191 90.539143,109.9709 90.8674405,110.371305 C93.7688353,113.458142 96.5082598,116.69067 99.0748799,120.056106 C97.6584413,120.554371 96.2065579,120.947519 94.7312504,121.232296 C94.7312504,121.232296 87.1551526,113.324294 86.9278696,113.324294 C86.7005867,113.324294 85.3621427,113.799775 85.5136647,114.275256 C85.6651867,114.750737 92.685704,121.48255 92.2311381,121.782854 C91.7765723,122.083158 70.8412885,126.787919 56.5729708,122.633715 C42.3046532,118.479511 33.4658723,110.121052 22.8593353,99.8606682 C12.2527983,89.6002846 3.86858329,70.9313916 5.33329554,54.990259 C6.7980078,39.0491265 17.1267546,22.9828673 28.591916,16.0008014 C38.1141404,9.94773497 48.8668412,6.05126468 60.0832295,4.58925287 C74.3262935,2.26189757 92.1301235,7.71741859 104.681192,15.6254215 C117.232261,23.5334245 124.732598,33.1431496 127.889305,41.6767857 C131.046013,50.2104218 131.424818,56.366652 130.389418,67.9283525 L130.414671,67.9283525 Z M73.0131032,26.8117422 C74.806113,28.0630085 85.1096061,26.8117422 88.5946112,24.9348428 C92.0796162,23.0579433 91.1199771,18.3782074 88.3925819,15.9757761 C85.6651867,13.5733448 77.4324936,15.4001936 75.3364399,16.1759787 C72.8605282,17.4523055 70.8413239,19.4532529 69.5533518,21.9067783 C68.7957421,22.957842 71.0938251,25.5604759 73.0131032,26.8117422 Z M82.1801816,17.2270424 C85.564172,17.2270424 87.4329428,18.1780048 87.6602258,19.3041444 C87.8875087,20.4302841 86.3975428,22.1320063 84.301489,22.8577407 C81.4426945,23.7293756 78.4272838,23.9769649 75.4627082,23.5834752 C74.6975151,22.8805502 74.0870918,22.0285726 73.6696984,21.0809426 C75.9420341,18.890557 78.8987774,17.5314562 82.0539133,17.2270424 L82.1801816,17.2270424 Z M84.4025037,41.2013045 C81.2457962,43.7038371 79.0487278,47.3575347 80.1851425,49.8600673 C81.3215572,52.3625998 83.8721768,52.988233 88.3925819,51.6368654 C91.6561499,50.4855233 94.4086937,48.2360923 96.170709,45.2804326 C96.8020505,44.2293689 95.6403822,42.7779001 93.6453431,41.6267351 C91.650304,40.4755701 92.2058845,38.0230881 91.1199771,37.8729362 C88.6703721,37.472531 87.4076892,38.8238986 84.2509817,41.2013045 L84.4025037,41.2013045 Z M91.0442161,43.9040397 C92.7362113,44.9551034 93.5695821,44.5296729 92.6351967,45.6808378 C90.954606,47.4355953 88.7967198,48.6699421 86.4227964,49.2344341 C84.7308013,49.2344341 83.3671036,48.8090036 84.2257281,47.0572308 C85.0843525,45.305458 87.5844648,41.7518617 89.0744307,41.4265325 C89.7815332,41.2263299 89.200699,42.8780014 90.8926942,43.929065 L91.0442161,43.9040397 Z M93.9988943,75.2857983 C93.4685675,76.5370646 96.7262896,79.0395972 98.5192994,79.4650277 C99.8494355,79.7261621 101.15161,80.1116064 102.408363,80.6161927 C104.423208,81.3823807 106.563682,81.7726668 108.721778,81.7674111 C110.817832,81.7674111 109.782432,79.4650277 110.312758,78.4389893 C110.843085,77.412951 112.004754,78.1386854 113.469466,78.0135588 C114.934178,77.8884322 118.318168,73.0084936 118.318168,73.0084936 C118.318168,73.0084936 117.787842,70.505961 117.383783,68.8292642 C116.979725,67.1525674 118.116139,63.0984646 117.712081,61.5218691 C117.308022,59.9452736 115.515012,60.2706028 112.989646,59.8451723 C110.46428,59.4197417 108.772285,57.7680702 107.105544,58.1684754 C105.438802,58.5688806 105.741846,60.671008 104.378148,61.7220717 C103.014451,62.7731354 100.009265,61.7220717 98.696075,62.5479074 C96.170709,63.899275 97.3323774,67.9784031 97.8627042,69.8553026 C98.3930311,71.732202 94.3524456,74.0595573 93.8221187,75.3108236 L93.9988943,75.2857983 Z M102.408363,71.1065689 C102.408363,69.2296694 101.878036,66.4268329 102.610392,66.1015037 C103.873075,65.5759719 105.969129,67.35277 107.231812,66.4268329 C108.494495,65.5008959 108.59551,62.973338 110.085475,63.0984646 C111.575441,63.2235912 113.343198,63.0984646 112.939139,63.9243004 C112.53508,64.7501361 110.413773,66.4268329 111.247144,68.3037324 C112.080515,70.1806318 113.343198,72.3828605 112.838124,73.1085949 C112.333051,73.8343294 110.312758,72.2827592 108.620763,74.0595573 C106.928768,75.8363554 107.257066,77.3879256 106.095397,77.2878243 C104.933729,77.187723 99.2516555,75.5110262 99.7819824,74.7852918 C100.312309,74.0595573 102.155826,73.0084936 102.256841,71.1315942 L102.408363,71.1065689 Z M104.201373,86.8474988 C105.262026,86.1217644 104.201373,85.170802 103.898329,84.8704981 C103.595285,84.5701942 101.574992,86.2218657 99.3779238,86.1217644 C97.1808554,86.0216631 97.0545871,84.8704981 95.6908895,83.8194344 C93.9022624,83.1068773 91.8669221,83.3827791 90.3371137,84.5451688 C90.1350844,84.8704981 89.7057722,87.4731319 91.498782,87.5732333 C93.2917918,87.6733346 93.5948358,86.5221696 95.1858163,86.6472962 C96.7767969,86.7724228 98.3425238,88.5241956 99.807236,88.8495249 C101.271948,89.1748541 102.989197,87.5231826 104.049851,86.8725241 L104.201373,86.8474988 Z M105.56507,96.5573252 C100.514338,98.6344273 100.716368,104.064923 105.363041,105.416291 C110.009714,106.767658 112.939139,104.490353 112.307798,100.411225 C112.266959,98.8047062 111.374803,97.3384131 109.960133,96.5527443 C108.545462,95.7670756 106.817677,95.7783265 105.413548,96.5823505 L105.56507,96.5573252 Z M109.782432,101.56239 C109.252105,103.43929 106.524709,102.613454 105.691339,102.188024 C104.857968,101.762593 104.857968,99.6854909 106.954022,98.8596552 C107.717564,98.6816627 108.519243,98.9157263 109.063424,99.4755305 C109.607605,100.035335 109.813681,100.837957 109.605656,101.587416 L109.782432,101.56239 Z M110.110729,84.3699915 C109.258795,84.8084292 108.674907,85.6296798 108.545002,86.5722202 C108.545002,87.398056 117.383783,94.079818 118.646466,94.6053498 C119.909149,95.1308816 119.479837,94.1799193 119.909149,93.3540835 C120.338461,92.5282478 111.272397,83.944561 109.933954,84.3699915 L110.110729,84.3699915 Z M116.752442,79.565129 C116.1211,79.0395972 115.186715,80.0906608 114.959432,80.716294 C117.06148,83.4043144 119.38432,85.9154098 121.904188,88.2238917 C122.863827,88.8495249 122.964842,87.9235878 123.3689,87.172828 C123.772959,86.4220683 117.181754,80.0155849 116.550412,79.5901543 L116.752442,79.565129 Z M120.995056,74.1596586 C120.2627,74.1596586 120.060671,75.7362541 120.060671,75.7362541 C120.489983,75.9364568 124.581076,80.2157875 125.313432,80.2157875 C126.045788,80.2157875 125.742744,79.6902556 125.843759,78.5390906 C125.944774,77.3879256 121.601144,74.2597599 120.995056,74.1596586 Z M123.722452,66.6520609 C123.419408,66.6520609 122.661798,68.5289603 123.09111,68.5289603 C123.520422,68.5289603 126.045788,72.1826579 126.778144,72.3828605 C127.510501,72.5830631 126.980174,72.1826579 126.980174,70.8312903 C126.980174,69.4799227 123.924481,66.5519596 123.520422,66.5519596 L123.722452,66.6520609 Z M117.611066,50.8110296 C119.408999,50.9758777 121.158978,50.1770731 122.201062,48.7158561 C123.243147,47.2546391 123.418806,45.353301 122.661798,43.7288624 C121.2981,40.4004941 118.444437,40.4755701 115.717042,41.5516591 C113.744444,42.0533299 112.363414,43.8128859 112.358305,45.8309898 C111.827978,47.9831678 113.620988,50.3855991 117.510051,50.7109283 L117.611066,50.8110296 Z M116.60092,43.7038371 C117.939364,43.1783053 119.378822,43.1282546 120.060671,44.7799261 C120.432944,45.5909726 120.341975,46.5369962 119.821827,47.2637734 C119.30168,47.9905506 118.430811,48.3884548 117.535305,48.3084971 C115.590773,48.1583451 114.706895,46.9571295 114.858417,45.8059645 C114.822683,44.7830816 115.502805,43.8706276 116.499905,43.6037358 L116.60092,43.7038371 Z M41.0167165,17.0268398 C41.7490727,17.0268398 41.5470434,16.6014093 42.910741,15.9757761 C44.2744386,15.350143 44.173424,16.4012066 47.3301314,17.5523716 C49.4434876,18.205967 51.7372956,17.9422911 53.6435463,16.8266372 C54.3960403,16.6261485 55.061395,16.1865893 55.5375708,15.5753709 C56.1689123,14.9497378 55.5375708,14.9497378 54.8052147,14.5243072 C54.0728585,14.0988767 53.3405024,15.2500417 49.3251705,15.350143 C45.3098387,15.4502443 45.7391509,14.2990793 43.7441118,13.8986741 C41.7490727,13.4982689 40.5116433,15.124915 39.8550482,15.350143 C39.198453,15.5753709 40.1833458,16.9267385 41.0167165,17.0268398 Z M43.5420825,31.5165034 C41.5470434,33.5936055 39.8550482,39.4495317 47.1281021,42.5776974 C53.4188369,45.0987359 60.5885429,44.1069137 65.9420785,39.9750636 C67.1128621,38.704672 67.6804118,36.9992616 67.5019281,35.2879257 C67.3234444,33.5765897 66.4159195,32.0222528 65.0076931,31.0159969 C63.012654,29.7647306 62.8106247,28.5134643 61.1186295,27.1620967 C59.4266344,25.8107292 56.4719562,24.9848934 51.5474926,26.336261 C48.4812593,27.3671492 45.7275728,29.1490397 43.5420825,31.5165034 L43.5420825,31.5165034 Z M57.229566,31.3163008 C59.7549319,31.3163008 59.0225758,29.8648319 61.0176149,32.2672632 C63.012654,34.6696945 63.9722931,35.7207582 63.239937,37.0721258 C59.8487755,40.2084131 54.9606805,41.1771929 50.6131072,39.5746583 C45.133063,37.0721258 45.5623752,35.2953276 46.623029,33.6436561 C47.9509303,31.6979648 49.7592174,30.1214045 51.8757901,29.0640215 C53.1132195,28.488439 54.8052147,31.1911742 57.2043123,31.3163008 L57.229566,31.3163008 Z M36.4963115,47.4826613 C35.3346431,46.0311924 29.5010478,47.4826613 27.556516,48.4336237 C25.3783478,49.3024901 23.9912449,51.4395816 24.0967646,53.7640181 C24.2987939,55.1153857 25.1574183,55.4407149 28.3141258,56.2665507 C31.4708332,57.0923864 33.0618138,54.7149805 34.7285553,53.3385875 C36.3952968,51.9621946 37.6579798,48.8340289 36.4963115,47.4826613 Z M33.6679016,51.4366628 C32.2031893,52.5878278 30.5111941,54.7650311 28.8191989,54.4647272 C27.1272038,54.1644233 24.6018378,51.9621946 29.2485112,49.9851939 C30.7455339,49.2370963 32.4340415,48.9495081 34.0972138,49.1593581 C35.1326138,49.459662 35.1326138,50.1853965 33.6426479,51.3365615 L33.6679016,51.4366628 Z M54.1991268,61.7721223 C45.2340777,66.126529 45.2340777,70.0054545 47.7594436,72.5079871 C50.2848096,75.0105197 58.189205,72.5079871 59.9569612,67.502922 C60.7013458,65.8519802 60.3518332,63.9179131 59.0755546,62.6255596 C57.7992759,61.3332062 55.8555653,60.9451669 54.1738732,61.6469957 L54.1991268,61.7721223 Z M57.6841318,66.7771875 C56.8507611,69.2797201 52.2040877,71.7822527 50.5373462,71.2567208 C48.8706047,70.731189 47.1786095,67.3027193 54.0223512,63.9493257 C55.1587659,63.2486166 58.4669953,64.049427 57.6336245,66.6520609 L57.6841318,66.7771875 Z M80.740723,67.8282512 C75.2606789,70.1305812 77.7860449,73.88438 80.5386938,74.9104184 C83.2913427,75.9364568 87.2814209,74.3848866 87.3824355,71.1566195 C87.4834501,67.9283525 82.2054353,67.0524661 80.5892011,67.7031246 L80.740723,67.8282512 Z M84.528772,71.3067715 C84.423797,71.9398552 84.0328219,72.4907756 83.467101,72.8027649 C82.9013801,73.1147543 82.2228539,73.1536531 81.6246011,72.9083923 C80.4629328,72.4579365 79.4022791,70.8813409 81.6246011,69.9053532 C82.3064499,69.504948 84.5035183,69.8052519 84.4782647,71.1816448 L84.528772,71.3067715 Z M49.6282144,102.538378 C48.8958583,102.538378 48.8958583,103.264113 48.4665461,104.114974 C47.87194,105.686832 46.4571579,106.810345 44.7795118,107.042937 C42.4561751,107.243139 40.385375,104.114974 39.7287799,104.540404 C38.163053,105.991873 38.4660969,107.042937 40.688419,108.294203 C42.90375,109.544026 45.6198736,109.544026 47.8352046,108.294203 C49.6282144,107.143038 50.1585413,104.2401 50.3605706,103.289138 C50.5625998,102.338175 50.2848096,102.538378 49.6282144,102.538378 Z M84.7813086,89.7254113 C84.0489524,89.0997781 84.4782647,87.7484105 84.4782647,86.9225748 C84.4782647,86.096739 81.6498548,85.245878 79.629562,85.1457766 C78.379754,85.0140097 77.1645987,84.6578473 76.0435424,84.094713 C74.9483225,84.3025191 73.8864735,84.6560744 72.8868349,85.1457766 C72.3565081,85.3459793 71.6241519,80.4660407 71.321108,79.414977 C71.0180641,78.3639134 67.8613567,78.7893439 66.4724054,79.414977 C65.0834541,80.0406102 66.2703761,82.7433454 66.2703761,83.2688772 C66.2703761,83.7944091 65.7400493,83.9946117 65.1087078,84.4200422 C64.4773663,84.8454727 63.3156979,83.5942064 62.5833418,83.1687759 C61.8509857,82.7433454 59.4266344,84.1197383 58.6942782,84.8454727 C57.9619221,85.5712072 59.3256197,88.5992716 59.6539173,89.1248035 C59.9822149,89.6503353 53.3405024,88.9246008 52.7091609,89.1248035 C52.0778194,89.3250061 51.5474926,90.0757658 51.2444487,90.8015003 C50.9414047,91.5272347 51.9768048,91.852564 53.4667707,92.8786023 C54.7687854,94.3053735 55.7043664,96.0222657 56.1941659,97.8836675 C56.1941659,98.309098 55.2597805,97.8836675 53.2394878,97.8836675 C51.219195,97.8836675 50.5120925,97.7335155 50.5120925,98.4091993 C50.9159838,99.5867701 51.8491435,100.511492 53.0374585,100.911732 C54.5885335,100.978402 56.1328825,101.15402 57.6588782,101.437264 C58.7195319,101.762593 58.9215612,106.442329 58.9215612,106.442329 C59.3092886,107.267937 59.8488176,108.014751 60.5125417,108.644558 C61.6742101,109.795723 67.8866103,105.316189 68.9220104,104.890759 C69.9574104,104.465328 71.0180641,105.316189 73.9727423,106.041924 C76.9274204,106.767658 75.3364399,106.041924 78.3921327,104.99086 C81.4478255,103.939796 80.3871718,104.99086 81.4478255,105.941822 C82.5084792,106.892785 82.2811963,106.667557 84.4025037,106.467354 C85.741148,106.403338 87.0824993,106.512704 88.3925819,106.792683 C90.0845771,106.792683 91.2462454,105.641518 92.609943,102.31315 C93.7676671,99.3618316 93.2477683,96.0225851 91.2462454,93.5542861 C89.4027283,90.5262217 85.639933,90.4261204 84.7813086,89.8004872 L84.7813086,89.7254113 Z M87.7359867,100.986808 C87.349092,101.683761 86.8150372,102.28981 86.1702598,102.763606 C86.1702598,102.763606 81.5235865,100.035846 80.2609035,100.536352 C78.9925011,101.090752 77.6941697,101.575313 76.3718399,101.987821 L71.9524495,101.687517 C70.6912754,101.612944 69.4297015,101.827014 68.2654152,102.31315 C67.3310298,102.738581 65.0076931,104.815683 64.0480541,104.089948 C62.9455402,103.363278 62.2458323,102.170662 62.1540296,100.861681 C61.5323409,98.6412349 60.7990704,96.452961 59.9569612,94.3050459 C59.9569612,93.4541848 62.4823272,93.2539822 62.6843564,92.6283491 C62.8863857,92.0027159 63.4167126,90.1258165 63.8460248,90.1258165 C65.1595133,89.6063939 66.4266511,88.9785535 67.6340737,88.248917 C68.3664298,87.6232839 68.6947274,86.6973468 69.4270835,86.9976508 C70.1594397,87.2979547 70.6897665,89.8255126 72.2807471,89.0747528 C73.2374088,88.4119408 74.371394,88.0460745 75.5384692,88.0236891 C77.5335083,87.8234865 80.9174987,88.6493223 80.5892011,89.0747528 C80.2609035,89.5001833 79.4275327,92.5282478 80.1598889,93.0287543 C80.892245,93.5292608 87.4329428,95.5312869 88.0642843,96.4822492 C88.4829778,98.0014309 88.3671913,99.6166108 87.7359867,101.061884 L87.7359867,100.986808 Z M64.0733077,94.7304764 C64.275337,95.4562109 67.3310298,100.786605 67.3310298,100.786605 C68.2172843,100.73656 69.0806266,100.488455 69.8563958,100.060871 C70.8160348,99.4352377 66.2703761,94.8556031 65.9673322,94.2299699 C65.6642883,93.6043368 64.0480541,94.8055524 64.0480541,94.8055524 L64.0733077,94.7304764 Z M70.285708,92.6533744 C69.6543665,92.6533744 69.1240396,93.6043368 69.1240396,93.6043368 C70.7039195,95.5383234 72.3900483,97.3846497 74.1747715,99.1349338 C75.1163098,99.2301428 76.0652337,99.0472981 76.9021668,98.6094019 C77.5335083,98.2590474 70.8917958,92.7284504 70.2604543,92.7284504 L70.285708,92.6533744 Z M82.1801816,117.878903 C80.1904853,118.083521 78.1847606,118.083521 76.1950643,117.878903 C75.033396,117.6787 75.3616935,117.353371 74.2000252,116.827839 C73.0383569,116.302307 72.3060007,117.553574 71.245347,118.079105 C70.1846933,118.604637 69.5533518,117.653675 68.4169372,117.028042 C66.7963474,116.741957 65.1280392,117.121385 63.7955175,118.079105 C63.5171752,118.916027 63.8638527,119.832142 64.6288882,120.281334 C65.7905566,120.906967 66.4218981,120.081131 67.5835664,119.655701 C68.7452347,119.23027 67.911864,120.081131 69.9069031,120.706765 C71.9019422,121.332398 73.1646252,119.030068 74.1242642,119.355397 C75.825672,119.915623 77.5895598,120.268573 79.3770254,120.406461 C80.4874716,120.44894 81.5952337,120.270237 82.6347475,119.880929 C82.8872841,119.630676 82.8872841,117.753776 82.154928,117.953979 L82.1801816,117.878903 Z M99.6557141,107.143038 C98.7213287,106.517405 96.6505286,107.318215 97.1303481,108.194102 C98.7914964,110.44591 100.696918,112.510335 102.812422,114.350332 C103.97409,114.875864 103.97409,113.924901 104.504417,113.424395 C105.034744,112.923888 100.564846,107.843747 99.6304604,107.218114 L99.6557141,107.143038 Z M67.0027322,52.4877265 C67.7350884,52.4877265 67.5330591,52.0622959 67.7350884,51.5617894 C67.9371176,51.0612829 66.2703761,50.2104218 64.1490687,49.68489 C62.0277613,49.1593581 61.9520003,50.6358524 59.0983368,50.9361563 C56.2446733,51.2364602 54.6031854,49.3345354 53.6182927,49.8850926 C52.6333999,50.4356498 51.5222389,51.3365615 52.1535804,52.3876252 C52.7849219,53.4386888 53.2142341,52.7129544 54.4769171,52.3876252 C55.7396001,52.0622959 56.4719562,53.1133596 58.8963075,53.2134609 C61.3206588,53.3135622 61.2196442,52.7880304 62.4823272,52.2875239 C63.7450101,51.7870173 66.2703761,52.4877265 67.0027322,52.4877265 Z M106.979275,32.4674658 C108.671271,33.2933016 111.196636,31.8418327 110.868339,30.2902625 C110.703275,29.5149281 110.177411,28.8628736 109.450652,28.5323764 C108.723893,28.2018792 107.882121,28.2319948 107.181305,28.6135656 C106.04489,29.0139709 105.312534,31.4164021 106.979275,32.2422379 L106.979275,32.4674658 Z M34.3750041,30.790769 C36.0669992,31.6166047 38.5923652,30.1651358 38.2640676,28.6135656 C38.0990035,27.8382313 37.5731393,27.1861768 36.8463803,26.8556796 C36.1196213,26.5251824 35.27785,26.555298 34.5770333,26.9368688 C33.4406187,27.4624007 32.6072479,29.9649332 34.3750041,30.790769 Z M36.4710578,78.6642173 C35.3093895,79.2898504 34.5770333,81.6922817 36.2690285,82.5181174 C37.9610237,83.3439532 40.4863897,81.8924843 40.1580921,80.3409141 C39.9970547,79.5684101 39.4778956,78.9163628 38.7571992,78.581437 C38.0365029,78.2465111 37.198637,78.2679146 36.4963115,78.6391919 L36.4710578,78.6642173 Z M34.1477211,96.5072746 C32.9860528,97.1329077 32.2536967,99.535339 33.9456918,100.361175 C35.637687,101.18701 38.163053,99.7355416 37.8347554,98.1839714 C37.673718,97.4114674 37.154559,96.7594201 36.4338626,96.4244943 C35.7131662,96.0895684 34.8753003,96.1109719 34.1729748,96.4822492 L34.1477211,96.5072746 Z M21.5208913,63.974351 C22.1522328,63.6740471 21.5208913,62.9232873 21.0915791,61.897249 C20.6622669,60.8712106 19.9299108,61.5969451 18.5662132,61.897249 C17.2025155,62.1975529 12.9599007,60.746084 12.7831251,61.897249 C12.7831251,62.5228821 12.7831251,64.9253134 14.1468227,64.7251108 C15.2302765,64.62281 16.321091,64.62281 17.4045448,64.7251108 C18.8100255,64.691375 20.2039295,64.4639657 21.546145,64.049427 L21.5208913,63.974351 Z M17.7328424,75.6611782 C17.2020733,76.4607361 16.9452775,77.4084322 17.0004863,78.3639134 C17.0004863,78.8894452 21.621906,78.6892426 23.2128865,78.564116 C24.8038671,78.4389893 24.1725256,77.412951 23.6421987,76.261786 C23.1118719,75.110621 18.3641839,75.0105197 17.7580961,75.7362541 L17.7328424,75.6611782 Z" id="形状"></path>
                <path d="M116.828203,19.2040431 C98.2667628,4.0386957 76.4728546,-2.01743315 56.8507611,0.585200737 C15.6620423,6.06574709 -2.01551939,41.1012032 0.181548989,61.2716158 C2.37861737,81.4420284 5.86362239,90.5262217 27.556516,112.898863 C49.2494095,135.271504 85.3368891,132.768972 104.428656,121.983056 C123.520422,111.197141 132.839023,96.9577304 135.212867,73.033519 C137.586711,49.1093075 135.44015,34.3693906 116.828203,19.2040431 Z M130.414671,67.9283525 C129.765639,78.8201812 126.805448,89.453852 121.727413,99.1349338 C118.138953,105.326971 113.329413,110.739847 107.585363,115.051041 C105.568782,116.522899 103.401944,117.781051 101.120426,118.80484 C101.120426,118.80484 92.685704,109.420343 92.2816455,109.345267 C91.8775869,109.270191 90.539143,109.9709 90.8674405,110.371305 C93.7688353,113.458142 96.5082598,116.69067 99.0748799,120.056106 C97.6584413,120.554371 96.2065579,120.947519 94.7312504,121.232296 C94.7312504,121.232296 87.1551526,113.324294 86.9278696,113.324294 C86.7005867,113.324294 85.3621427,113.799775 85.5136647,114.275256 C85.6651867,114.750737 92.685704,121.48255 92.2311381,121.782854 C91.7765723,122.083158 70.8412885,126.787919 56.5729708,122.633715 C42.3046532,118.479511 33.4658723,110.121052 22.8593353,99.8606682 C12.2527983,89.6002846 3.86858329,70.9313916 5.33329554,54.990259 C6.7980078,39.0491265 17.1267546,22.9828673 28.591916,16.0008014 C38.1141404,9.94773497 48.8668412,6.05126468 60.0832295,4.58925287 C74.3262935,2.26189757 92.1301235,7.71741859 104.681192,15.6254215 C117.232261,23.5334245 124.732598,33.1431496 127.889305,41.6767857 C131.046013,50.2104218 131.424818,56.366652 130.389418,67.9283525 L130.414671,67.9283525 Z M73.0131032,26.8117422 C74.806113,28.0630085 85.1096061,26.8117422 88.5946112,24.9348428 C92.0796162,23.0579433 91.1199771,18.3782074 88.3925819,15.9757761 C85.6651867,13.5733448 77.4324936,15.4001936 75.3364399,16.1759787 C72.8605282,17.4523055 70.8413239,19.4532529 69.5533518,21.9067783 C68.7957421,22.957842 71.0938251,25.5604759 73.0131032,26.8117422 Z M82.1801816,17.2270424 C85.564172,17.2270424 87.4329428,18.1780048 87.6602258,19.3041444 C87.8875087,20.4302841 86.3975428,22.1320063 84.301489,22.8577407 C81.4426945,23.7293756 78.4272838,23.9769649 75.4627082,23.5834752 C74.6975151,22.8805502 74.0870918,22.0285726 73.6696984,21.0809426 C75.9420341,18.890557 78.8987774,17.5314562 82.0539133,17.2270424 L82.1801816,17.2270424 Z M84.4025037,41.2013045 C81.2457962,43.7038371 79.0487278,47.3575347 80.1851425,49.8600673 C81.3215572,52.3625998 83.8721768,52.988233 88.3925819,51.6368654 C91.6561499,50.4855233 94.4086937,48.2360923 96.170709,45.2804326 C96.8020505,44.2293689 95.6403822,42.7779001 93.6453431,41.6267351 C91.650304,40.4755701 92.2058845,38.0230881 91.1199771,37.8729362 C88.6703721,37.472531 87.4076892,38.8238986 84.2509817,41.2013045 L84.4025037,41.2013045 Z M91.0442161,43.9040397 C92.7362113,44.9551034 93.5695821,44.5296729 92.6351967,45.6808378 C90.954606,47.4355953 88.7967198,48.6699421 86.4227964,49.2344341 C84.7308013,49.2344341 83.3671036,48.8090036 84.2257281,47.0572308 C85.0843525,45.305458 87.5844648,41.7518617 89.0744307,41.4265325 C89.7815332,41.2263299 89.200699,42.8780014 90.8926942,43.929065 L91.0442161,43.9040397 Z M93.9988943,75.2857983 C93.4685675,76.5370646 96.7262896,79.0395972 98.5192994,79.4650277 C99.8494355,79.7261621 101.15161,80.1116064 102.408363,80.6161927 C104.423208,81.3823807 106.563682,81.7726668 108.721778,81.7674111 C110.817832,81.7674111 109.782432,79.4650277 110.312758,78.4389893 C110.843085,77.412951 112.004754,78.1386854 113.469466,78.0135588 C114.934178,77.8884322 118.318168,73.0084936 118.318168,73.0084936 C118.318168,73.0084936 117.787842,70.505961 117.383783,68.8292642 C116.979725,67.1525674 118.116139,63.0984646 117.712081,61.5218691 C117.308022,59.9452736 115.515012,60.2706028 112.989646,59.8451723 C110.46428,59.4197417 108.772285,57.7680702 107.105544,58.1684754 C105.438802,58.5688806 105.741846,60.671008 104.378148,61.7220717 C103.014451,62.7731354 100.009265,61.7220717 98.696075,62.5479074 C96.170709,63.899275 97.3323774,67.9784031 97.8627042,69.8553026 C98.3930311,71.732202 94.3524456,74.0595573 93.8221187,75.3108236 L93.9988943,75.2857983 Z M102.408363,71.1065689 C102.408363,69.2296694 101.878036,66.4268329 102.610392,66.1015037 C103.873075,65.5759719 105.969129,67.35277 107.231812,66.4268329 C108.494495,65.5008959 108.59551,62.973338 110.085475,63.0984646 C111.575441,63.2235912 113.343198,63.0984646 112.939139,63.9243004 C112.53508,64.7501361 110.413773,66.4268329 111.247144,68.3037324 C112.080515,70.1806318 113.343198,72.3828605 112.838124,73.1085949 C112.333051,73.8343294 110.312758,72.2827592 108.620763,74.0595573 C106.928768,75.8363554 107.257066,77.3879256 106.095397,77.2878243 C104.933729,77.187723 99.2516555,75.5110262 99.7819824,74.7852918 C100.312309,74.0595573 102.155826,73.0084936 102.256841,71.1315942 L102.408363,71.1065689 Z M104.201373,86.8474988 C105.262026,86.1217644 104.201373,85.170802 103.898329,84.8704981 C103.595285,84.5701942 101.574992,86.2218657 99.3779238,86.1217644 C97.1808554,86.0216631 97.0545871,84.8704981 95.6908895,83.8194344 C93.9022624,83.1068773 91.8669221,83.3827791 90.3371137,84.5451688 C90.1350844,84.8704981 89.7057722,87.4731319 91.498782,87.5732333 C93.2917918,87.6733346 93.5948358,86.5221696 95.1858163,86.6472962 C96.7767969,86.7724228 98.3425238,88.5241956 99.807236,88.8495249 C101.271948,89.1748541 102.989197,87.5231826 104.049851,86.8725241 L104.201373,86.8474988 Z M105.56507,96.5573252 C100.514338,98.6344273 100.716368,104.064923 105.363041,105.416291 C110.009714,106.767658 112.939139,104.490353 112.307798,100.411225 C112.266959,98.8047062 111.374803,97.3384131 109.960133,96.5527443 C108.545462,95.7670756 106.817677,95.7783265 105.413548,96.5823505 L105.56507,96.5573252 Z M109.782432,101.56239 C109.252105,103.43929 106.524709,102.613454 105.691339,102.188024 C104.857968,101.762593 104.857968,99.6854909 106.954022,98.8596552 C107.717564,98.6816627 108.519243,98.9157263 109.063424,99.4755305 C109.607605,100.035335 109.813681,100.837957 109.605656,101.587416 L109.782432,101.56239 Z M110.110729,84.3699915 C109.258795,84.8084292 108.674907,85.6296798 108.545002,86.5722202 C108.545002,87.398056 117.383783,94.079818 118.646466,94.6053498 C119.909149,95.1308816 119.479837,94.1799193 119.909149,93.3540835 C120.338461,92.5282478 111.272397,83.944561 109.933954,84.3699915 L110.110729,84.3699915 Z M116.752442,79.565129 C116.1211,79.0395972 115.186715,80.0906608 114.959432,80.716294 C117.06148,83.4043144 119.38432,85.9154098 121.904188,88.2238917 C122.863827,88.8495249 122.964842,87.9235878 123.3689,87.172828 C123.772959,86.4220683 117.181754,80.0155849 116.550412,79.5901543 L116.752442,79.565129 Z M120.995056,74.1596586 C120.2627,74.1596586 120.060671,75.7362541 120.060671,75.7362541 C120.489983,75.9364568 124.581076,80.2157875 125.313432,80.2157875 C126.045788,80.2157875 125.742744,79.6902556 125.843759,78.5390906 C125.944774,77.3879256 121.601144,74.2597599 120.995056,74.1596586 Z M123.722452,66.6520609 C123.419408,66.6520609 122.661798,68.5289603 123.09111,68.5289603 C123.520422,68.5289603 126.045788,72.1826579 126.778144,72.3828605 C127.510501,72.5830631 126.980174,72.1826579 126.980174,70.8312903 C126.980174,69.4799227 123.924481,66.5519596 123.520422,66.5519596 L123.722452,66.6520609 Z M117.611066,50.8110296 C119.408999,50.9758777 121.158978,50.1770731 122.201062,48.7158561 C123.243147,47.2546391 123.418806,45.353301 122.661798,43.7288624 C121.2981,40.4004941 118.444437,40.4755701 115.717042,41.5516591 C113.744444,42.0533299 112.363414,43.8128859 112.358305,45.8309898 C111.827978,47.9831678 113.620988,50.3855991 117.510051,50.7109283 L117.611066,50.8110296 Z M116.60092,43.7038371 C117.939364,43.1783053 119.378822,43.1282546 120.060671,44.7799261 C120.432944,45.5909726 120.341975,46.5369962 119.821827,47.2637734 C119.30168,47.9905506 118.430811,48.3884548 117.535305,48.3084971 C115.590773,48.1583451 114.706895,46.9571295 114.858417,45.8059645 C114.822683,44.7830816 115.502805,43.8706276 116.499905,43.6037358 L116.60092,43.7038371 Z M41.0167165,17.0268398 C41.7490727,17.0268398 41.5470434,16.6014093 42.910741,15.9757761 C44.2744386,15.350143 44.173424,16.4012066 47.3301314,17.5523716 C49.4434876,18.205967 51.7372956,17.9422911 53.6435463,16.8266372 C54.3960403,16.6261485 55.061395,16.1865893 55.5375708,15.5753709 C56.1689123,14.9497378 55.5375708,14.9497378 54.8052147,14.5243072 C54.0728585,14.0988767 53.3405024,15.2500417 49.3251705,15.350143 C45.3098387,15.4502443 45.7391509,14.2990793 43.7441118,13.8986741 C41.7490727,13.4982689 40.5116433,15.124915 39.8550482,15.350143 C39.198453,15.5753709 40.1833458,16.9267385 41.0167165,17.0268398 Z M43.5420825,31.5165034 C41.5470434,33.5936055 39.8550482,39.4495317 47.1281021,42.5776974 C53.4188369,45.0987359 60.5885429,44.1069137 65.9420785,39.9750636 C67.1128621,38.704672 67.6804118,36.9992616 67.5019281,35.2879257 C67.3234444,33.5765897 66.4159195,32.0222528 65.0076931,31.0159969 C63.012654,29.7647306 62.8106247,28.5134643 61.1186295,27.1620967 C59.4266344,25.8107292 56.4719562,24.9848934 51.5474926,26.336261 C48.4812593,27.3671492 45.7275728,29.1490397 43.5420825,31.5165034 L43.5420825,31.5165034 Z M57.229566,31.3163008 C59.7549319,31.3163008 59.0225758,29.8648319 61.0176149,32.2672632 C63.012654,34.6696945 63.9722931,35.7207582 63.239937,37.0721258 C59.8487755,40.2084131 54.9606805,41.1771929 50.6131072,39.5746583 C45.133063,37.0721258 45.5623752,35.2953276 46.623029,33.6436561 C47.9509303,31.6979648 49.7592174,30.1214045 51.8757901,29.0640215 C53.1132195,28.488439 54.8052147,31.1911742 57.2043123,31.3163008 L57.229566,31.3163008 Z M36.4963115,47.4826613 C35.3346431,46.0311924 29.5010478,47.4826613 27.556516,48.4336237 C25.3783478,49.3024901 23.9912449,51.4395816 24.0967646,53.7640181 C24.2987939,55.1153857 25.1574183,55.4407149 28.3141258,56.2665507 C31.4708332,57.0923864 33.0618138,54.7149805 34.7285553,53.3385875 C36.3952968,51.9621946 37.6579798,48.8340289 36.4963115,47.4826613 Z M33.6679016,51.4366628 C32.2031893,52.5878278 30.5111941,54.7650311 28.8191989,54.4647272 C27.1272038,54.1644233 24.6018378,51.9621946 29.2485112,49.9851939 C30.7455339,49.2370963 32.4340415,48.9495081 34.0972138,49.1593581 C35.1326138,49.459662 35.1326138,50.1853965 33.6426479,51.3365615 L33.6679016,51.4366628 Z M54.1991268,61.7721223 C45.2340777,66.126529 45.2340777,70.0054545 47.7594436,72.5079871 C50.2848096,75.0105197 58.189205,72.5079871 59.9569612,67.502922 C60.7013458,65.8519802 60.3518332,63.9179131 59.0755546,62.6255596 C57.7992759,61.3332062 55.8555653,60.9451669 54.1738732,61.6469957 L54.1991268,61.7721223 Z M57.6841318,66.7771875 C56.8507611,69.2797201 52.2040877,71.7822527 50.5373462,71.2567208 C48.8706047,70.731189 47.1786095,67.3027193 54.0223512,63.9493257 C55.1587659,63.2486166 58.4669953,64.049427 57.6336245,66.6520609 L57.6841318,66.7771875 Z M80.740723,67.8282512 C75.2606789,70.1305812 77.7860449,73.88438 80.5386938,74.9104184 C83.2913427,75.9364568 87.2814209,74.3848866 87.3824355,71.1566195 C87.4834501,67.9283525 82.2054353,67.0524661 80.5892011,67.7031246 L80.740723,67.8282512 Z M84.528772,71.3067715 C84.423797,71.9398552 84.0328219,72.4907756 83.467101,72.8027649 C82.9013801,73.1147543 82.2228539,73.1536531 81.6246011,72.9083923 C80.4629328,72.4579365 79.4022791,70.8813409 81.6246011,69.9053532 C82.3064499,69.504948 84.5035183,69.8052519 84.4782647,71.1816448 L84.528772,71.3067715 Z M49.6282144,102.538378 C48.8958583,102.538378 48.8958583,103.264113 48.4665461,104.114974 C47.87194,105.686832 46.4571579,106.810345 44.7795118,107.042937 C42.4561751,107.243139 40.385375,104.114974 39.7287799,104.540404 C38.163053,105.991873 38.4660969,107.042937 40.688419,108.294203 C42.90375,109.544026 45.6198736,109.544026 47.8352046,108.294203 C49.6282144,107.143038 50.1585413,104.2401 50.3605706,103.289138 C50.5625998,102.338175 50.2848096,102.538378 49.6282144,102.538378 Z M84.7813086,89.7254113 C84.0489524,89.0997781 84.4782647,87.7484105 84.4782647,86.9225748 C84.4782647,86.096739 81.6498548,85.245878 79.629562,85.1457766 C78.379754,85.0140097 77.1645987,84.6578473 76.0435424,84.094713 C74.9483225,84.3025191 73.8864735,84.6560744 72.8868349,85.1457766 C72.3565081,85.3459793 71.6241519,80.4660407 71.321108,79.414977 C71.0180641,78.3639134 67.8613567,78.7893439 66.4724054,79.414977 C65.0834541,80.0406102 66.2703761,82.7433454 66.2703761,83.2688772 C66.2703761,83.7944091 65.7400493,83.9946117 65.1087078,84.4200422 C64.4773663,84.8454727 63.3156979,83.5942064 62.5833418,83.1687759 C61.8509857,82.7433454 59.4266344,84.1197383 58.6942782,84.8454727 C57.9619221,85.5712072 59.3256197,88.5992716 59.6539173,89.1248035 C59.9822149,89.6503353 53.3405024,88.9246008 52.7091609,89.1248035 C52.0778194,89.3250061 51.5474926,90.0757658 51.2444487,90.8015003 C50.9414047,91.5272347 51.9768048,91.852564 53.4667707,92.8786023 C54.7687854,94.3053735 55.7043664,96.0222657 56.1941659,97.8836675 C56.1941659,98.309098 55.2597805,97.8836675 53.2394878,97.8836675 C51.219195,97.8836675 50.5120925,97.7335155 50.5120925,98.4091993 C50.9159838,99.5867701 51.8491435,100.511492 53.0374585,100.911732 C54.5885335,100.978402 56.1328825,101.15402 57.6588782,101.437264 C58.7195319,101.762593 58.9215612,106.442329 58.9215612,106.442329 C59.3092886,107.267937 59.8488176,108.014751 60.5125417,108.644558 C61.6742101,109.795723 67.8866103,105.316189 68.9220104,104.890759 C69.9574104,104.465328 71.0180641,105.316189 73.9727423,106.041924 C76.9274204,106.767658 75.3364399,106.041924 78.3921327,104.99086 C81.4478255,103.939796 80.3871718,104.99086 81.4478255,105.941822 C82.5084792,106.892785 82.2811963,106.667557 84.4025037,106.467354 C85.741148,106.403338 87.0824993,106.512704 88.3925819,106.792683 C90.0845771,106.792683 91.2462454,105.641518 92.609943,102.31315 C93.7676671,99.3618316 93.2477683,96.0225851 91.2462454,93.5542861 C89.4027283,90.5262217 85.639933,90.4261204 84.7813086,89.8004872 L84.7813086,89.7254113 Z M87.7359867,100.986808 C87.349092,101.683761 86.8150372,102.28981 86.1702598,102.763606 C86.1702598,102.763606 81.5235865,100.035846 80.2609035,100.536352 C78.9925011,101.090752 77.6941697,101.575313 76.3718399,101.987821 L71.9524495,101.687517 C70.6912754,101.612944 69.4297015,101.827014 68.2654152,102.31315 C67.3310298,102.738581 65.0076931,104.815683 64.0480541,104.089948 C62.9455402,103.363278 62.2458323,102.170662 62.1540296,100.861681 C61.5323409,98.6412349 60.7990704,96.452961 59.9569612,94.3050459 C59.9569612,93.4541848 62.4823272,93.2539822 62.6843564,92.6283491 C62.8863857,92.0027159 63.4167126,90.1258165 63.8460248,90.1258165 C65.1595133,89.6063939 66.4266511,88.9785535 67.6340737,88.248917 C68.3664298,87.6232839 68.6947274,86.6973468 69.4270835,86.9976508 C70.1594397,87.2979547 70.6897665,89.8255126 72.2807471,89.0747528 C73.2374088,88.4119408 74.371394,88.0460745 75.5384692,88.0236891 C77.5335083,87.8234865 80.9174987,88.6493223 80.5892011,89.0747528 C80.2609035,89.5001833 79.4275327,92.5282478 80.1598889,93.0287543 C80.892245,93.5292608 87.4329428,95.5312869 88.0642843,96.4822492 C88.4829778,98.0014309 88.3671913,99.6166108 87.7359867,101.061884 L87.7359867,100.986808 Z M64.0733077,94.7304764 C64.275337,95.4562109 67.3310298,100.786605 67.3310298,100.786605 C68.2172843,100.73656 69.0806266,100.488455 69.8563958,100.060871 C70.8160348,99.4352377 66.2703761,94.8556031 65.9673322,94.2299699 C65.6642883,93.6043368 64.0480541,94.8055524 64.0480541,94.8055524 L64.0733077,94.7304764 Z M70.285708,92.6533744 C69.6543665,92.6533744 69.1240396,93.6043368 69.1240396,93.6043368 C70.7039195,95.5383234 72.3900483,97.3846497 74.1747715,99.1349338 C75.1163098,99.2301428 76.0652337,99.0472981 76.9021668,98.6094019 C77.5335083,98.2590474 70.8917958,92.7284504 70.2604543,92.7284504 L70.285708,92.6533744 Z M82.1801816,117.878903 C80.1904853,118.083521 78.1847606,118.083521 76.1950643,117.878903 C75.033396,117.6787 75.3616935,117.353371 74.2000252,116.827839 C73.0383569,116.302307 72.3060007,117.553574 71.245347,118.079105 C70.1846933,118.604637 69.5533518,117.653675 68.4169372,117.028042 C66.7963474,116.741957 65.1280392,117.121385 63.7955175,118.079105 C63.5171752,118.916027 63.8638527,119.832142 64.6288882,120.281334 C65.7905566,120.906967 66.4218981,120.081131 67.5835664,119.655701 C68.7452347,119.23027 67.911864,120.081131 69.9069031,120.706765 C71.9019422,121.332398 73.1646252,119.030068 74.1242642,119.355397 C75.825672,119.915623 77.5895598,120.268573 79.3770254,120.406461 C80.4874716,120.44894 81.5952337,120.270237 82.6347475,119.880929 C82.8872841,119.630676 82.8872841,117.753776 82.154928,117.953979 L82.1801816,117.878903 Z M99.6557141,107.143038 C98.7213287,106.517405 96.6505286,107.318215 97.1303481,108.194102 C98.7914964,110.44591 100.696918,112.510335 102.812422,114.350332 C103.97409,114.875864 103.97409,113.924901 104.504417,113.424395 C105.034744,112.923888 100.564846,107.843747 99.6304604,107.218114 L99.6557141,107.143038 Z M67.0027322,52.4877265 C67.7350884,52.4877265 67.5330591,52.0622959 67.7350884,51.5617894 C67.9371176,51.0612829 66.2703761,50.2104218 64.1490687,49.68489 C62.0277613,49.1593581 61.9520003,50.6358524 59.0983368,50.9361563 C56.2446733,51.2364602 54.6031854,49.3345354 53.6182927,49.8850926 C52.6333999,50.4356498 51.5222389,51.3365615 52.1535804,52.3876252 C52.7849219,53.4386888 53.2142341,52.7129544 54.4769171,52.3876252 C55.7396001,52.0622959 56.4719562,53.1133596 58.8963075,53.2134609 C61.3206588,53.3135622 61.2196442,52.7880304 62.4823272,52.2875239 C63.7450101,51.7870173 66.2703761,52.4877265 67.0027322,52.4877265 Z M106.979275,32.4674658 C108.671271,33.2933016 111.196636,31.8418327 110.868339,30.2902625 C110.703275,29.5149281 110.177411,28.8628736 109.450652,28.5323764 C108.723893,28.2018792 107.882121,28.2319948 107.181305,28.6135656 C106.04489,29.0139709 105.312534,31.4164021 106.979275,32.2422379 L106.979275,32.4674658 Z M34.3750041,30.790769 C36.0669992,31.6166047 38.5923652,30.1651358 38.2640676,28.6135656 C38.0990035,27.8382313 37.5731393,27.1861768 36.8463803,26.8556796 C36.1196213,26.5251824 35.27785,26.555298 34.5770333,26.9368688 C33.4406187,27.4624007 32.6072479,29.9649332 34.3750041,30.790769 Z M36.4710578,78.6642173 C35.3093895,79.2898504 34.5770333,81.6922817 36.2690285,82.5181174 C37.9610237,83.3439532 40.4863897,81.8924843 40.1580921,80.3409141 C39.9970547,79.5684101 39.4778956,78.9163628 38.7571992,78.581437 C38.0365029,78.2465111 37.198637,78.2679146 36.4963115,78.6391919 L36.4710578,78.6642173 Z M34.1477211,96.5072746 C32.9860528,97.1329077 32.2536967,99.535339 33.9456918,100.361175 C35.637687,101.18701 38.163053,99.7355416 37.8347554,98.1839714 C37.673718,97.4114674 37.154559,96.7594201 36.4338626,96.4244943 C35.7131662,96.0895684 34.8753003,96.1109719 34.1729748,96.4822492 L34.1477211,96.5072746 Z M21.5208913,63.974351 C22.1522328,63.6740471 21.5208913,62.9232873 21.0915791,61.897249 C20.6622669,60.8712106 19.9299108,61.5969451 18.5662132,61.897249 C17.2025155,62.1975529 12.9599007,60.746084 12.7831251,61.897249 C12.7831251,62.5228821 12.7831251,64.9253134 14.1468227,64.7251108 C15.2302765,64.62281 16.321091,64.62281 17.4045448,64.7251108 C18.8100255,64.691375 20.2039295,64.4639657 21.546145,64.049427 L21.5208913,63.974351 Z M17.7328424,75.6611782 C17.2020733,76.4607361 16.9452775,77.4084322 17.0004863,78.3639134 C17.0004863,78.8894452 21.621906,78.6892426 23.2128865,78.564116 C24.8038671,78.4389893 24.1725256,77.412951 23.6421987,76.261786 C23.1118719,75.110621 18.3641839,75.0105197 17.7580961,75.7362541 L17.7328424,75.6611782 Z" id="形状备份"></path>
            </g>
        </g>
    </g>
</svg>