<?xml version="1.0" encoding="UTF-8"?>
<svg width="38px" height="38px" viewBox="0 0 38 38" version="1.1" xmlns="http://www.w3.org/2000/svg" xmlns:xlink="http://www.w3.org/1999/xlink">
    <title>133</title>
    <g id="2021/1/11" stroke="none" stroke-width="1" fill="none" fill-rule="evenodd">
        <g id="05.Main-interface" transform="translate(-55.000000, -472.000000)" fill-rule="nonzero">
            <g id="133" transform="translate(55.000000, 472.000000)">
                <g id="24" transform="translate(0.000000, 0.590334)" fill="#C42126">
                    <rect id="矩形" x="0.0858012685" y="19.7053097" width="37.8843129" height="1"></rect>
                    <rect id="矩形" x="2.05898943" y="9.9060886" width="33.9364905" height="1"></rect>
                    <rect id="矩形" x="0.70946723" y="13.1719903" width="36.6342495" height="1"></rect>
                    <polygon id="路径" points="8.17787315 32.8383487 29.8768372 32.8383487 29.8779619 32.8351821 8.17666808 32.8351821"></polygon>
                    <path d="M19.027074,0.114358353 C18.6533404,0.114358353 18.2825793,0.149825019 17.9145497,0.20513613 L20.1398393,0.20513613 C19.7714884,0.149825019 19.4008076,0.114358353 19.027074,0.114358353 Z" id="路径"></path>
                    <rect id="矩形" x="0.0785708245" y="16.43865" width="37.8963636" height="1"></rect>
                </g>
                <path d="M24.5820629,7.49942463 L33.3658537,7.49942463 C32.3225203,6.18821439 31.1099452,5.02750508 29.7665748,4.04487917 L23.1707317,4.04487917 C23.7165148,5.03616469 24.1858711,6.20585435 24.5820629,7.49942463 Z" id="23" fill="#E7E7E7"></path>
                <path d="M23.0084852,4.04487917 L29.6585366,4.04487917 C26.9093861,2.05054952 23.6087924,0.801638551 20.0344348,0.590333717 L19.4634146,0.590333717 C21.1457785,0.80708951 21.9185195,2.08165205 23.0084852,4.04487917 Z" id="22" fill="#DC3027"></path>
                <path d="M37.0731707,14.4085155 C36.7277974,13.2043478 36.2646477,12.0490106 35.6954502,10.9539701 L25.0243902,10.9539701 C25.2405869,12.0631226 25.4111821,13.221667 25.5374882,14.4085155 L37.0731707,14.4085155 Z" id="21" fill="#E7E7E7"></path>
                <path d="M24.9706539,10.9539701 L36.1463415,10.9539701 C35.5094943,9.71913302 34.7443994,8.56037597 33.8600025,7.49942463 L24.097561,7.49942463 C24.4418049,8.57360379 24.7340828,9.73236084 24.9706539,10.9539701 Z" id="20" fill="#DC3027"></path>
                <path d="M26.8780488,20.4539701 L37.9179499,20.4539701 C37.9703665,19.869647 38,19.2774667 38,18.6790327 C38,18.1126691 37.9715211,17.5535213 37.9248772,16.9994246 L26.8806658,16.9994246 C26.9166108,18.1483474 26.915995,19.3056887 26.8780488,20.4539701 Z" id="19" fill="#E7E7E7"></path>
                <path d="M38,17.863061 C37.8988067,16.6765332 37.690963,15.5221582 37.3874611,14.4085155 L25.9512195,14.4085155 C26.0660559,15.5397982 26.1419119,16.6972201 26.1789433,17.863061 L38,17.863061 Z" id="18" fill="#DC3027"></path>
                <path d="M25.0243902,27.363061 L35.6927556,27.363061 C36.2617373,26.2694008 36.7254597,25.1133695 37.0731707,23.9085155 L25.5401764,23.9085155 C25.4131701,25.096935 25.2408102,26.2550507 25.0243902,27.363061 Z" id="17" fill="#E7E7E7"></path>
                <path d="M37.3527475,23.9085155 C37.6701064,22.7951936 37.8904613,21.6408186 38,20.4539701 L26.1915341,20.4539701 C26.1512155,21.620693 26.0712171,22.7777942 25.9512195,23.9085155 L37.3527475,23.9085155 L37.3527475,23.9085155 Z" id="16" fill="#DC3027"></path>
                <path d="M29.6676093,34.2721519 C31.0475007,33.2934549 32.2926746,32.1315429 33.3658537,30.8176064 L24.6268294,30.8176064 C24.2183513,32.1165489 23.7333524,33.2843944 23.1707317,34.2721519 L29.6676093,34.2721519 L29.6676093,34.2721519 Z" id="15" fill="#E7E7E7"></path>
                <g id="14" transform="translate(18.536585, 27.363061)" fill="#DC3027">
                    <path d="M6.15746539,3.18566667 L15.303592,3.18566667 C16.1763061,2.21217442 16.9339222,1.14773256 17.5642246,0.0122984496 L7.01978818,0.0122984496 C6.78578466,1.13528682 6.49776203,2.20024419 6.15746539,3.18566667 Z" id="路径"></path>
                    <path d="M0.27599751,9.5361491 C0.205578135,9.53298243 0.135305773,9.52833798 0.0648863986,9.52517132 C0.135305773,9.52812687 0.205725148,9.53298243 0.27599751,9.5361491 Z" id="路径"></path>
                    <path d="M0.859625797,9.47621318 C4.84252428,9.47621318 8.53295803,8.322 11.5723067,6.35984496 L4.77311646,6.35984496 C3.56637223,8.29003876 2.77020501,9.47621318 0.859625797,9.47621318 Z" id="路径"></path>
                </g>
                <path d="M19.4634146,36.9431681 C19.1528156,36.9431681 18.8442685,36.9290236 18.5365854,36.9077014 C18.8475084,36.9281792 19.1563795,36.9431681 19.4634146,36.9431681 Z" id="13" fill="#C42126"></path>
                <path d="M23.5402039,4.04487917 L7.49355684,4.04487917 C6.08028331,5.02750508 4.80507743,6.18813421 3.70731707,7.49942463 L25.0243902,7.49942463 C24.6076547,6.20585435 24.1142875,5.03616469 23.5402039,4.04487917 Z" id="12" fill="#F3F4F5"></path>
                <path d="M8.34146341,4.04487917 L24.097561,4.04487917 C22.9807717,2.08165205 21.560359,0.80708951 19.8369643,0.590333717 L18.1999641,0.590333717 C14.5384324,0.801638551 11.1573413,2.05054952 8.34146341,4.04487917 Z" id="11" fill="#E73625"></path>
                <path d="M0.926829268,14.4085155 L26.8780488,14.4085155 C26.754173,13.2214265 26.5870491,12.0631226 26.37515,10.9539701 L2.27716407,10.9539701 C1.71920039,12.0490908 1.26533742,13.2043478 0.926829268,14.4085155 Z" id="10" fill="#F3F4F5"></path>
                <path d="M4.11331734,7.49942463 C3.23975945,8.56037597 2.48284208,9.71905285 1.85365854,10.9539701 L25.9512195,10.9539701 C25.7176169,9.73260135 25.428789,8.57392447 25.0884334,7.49942463 C25.0884334,7.49942463 4.11331734,7.49942463 4.11331734,7.49942463 Z" id="9" fill="#E73625"></path>
                <path d="M0,18.6789091 C0,19.2773848 0.0312167297,19.8696063 0.0855450742,20.4539701 L26.8477518,20.4539701 C26.8873946,19.3055286 26.8879564,18.1484274 26.8504802,16.9994246 L0.0783226946,16.9994246 C0.0296920051,17.5533193 0,18.112506 0,18.6789091 Z" id="8" fill="#F3F4F5"></path>
                <path d="M0,17.863061 L26.8780488,17.863061 C26.8397794,16.6969795 26.761146,15.5398784 26.6427125,14.4085155 L0.632692918,14.4085155 C0.319045455,15.5223988 0.104253742,16.6765332 0,17.863061 Z" id="7" fill="#E73625"></path>
                <path d="M26.8780488,23.9085155 L0.926829268,23.9085155 C1.27306127,25.1136902 1.73513327,26.2694008 2.30137273,27.363061 L26.3644566,27.363061 C26.5800365,26.2552912 26.7512607,25.0971755 26.8780488,23.9085155 Z" id="6" fill="#F3F4F5"></path>
                <path d="M0.65339197,23.9085155 L26.6354547,23.9085155 C26.7563488,22.7777942 26.8373478,21.6203723 26.8780488,20.4539701 L0,20.4539701 C0.110577746,21.6410591 0.333345157,22.7951936 0.65339197,23.9085155 Z" id="5" fill="#E73625"></path>
                <path d="M8.32844383,34.2721519 L23.5698465,34.2721519 C24.1318668,33.2841538 24.6165838,32.1165489 25.0243902,30.8176064 L4.63414634,30.8176064 C5.70618002,32.1315429 6.9497108,33.2934549 8.32844383,34.2721519 Z" id="4" fill="#F3F4F5"></path>
                <g id="3" transform="translate(1.853659, 27.363061)" fill="#E73625">
                    <path d="M0.0204026016,0.0122248062 C0.658746992,1.14765891 1.42585268,2.21210078 2.30959057,3.18559302 L23.1579167,3.18559302 C23.5021906,2.20024419 23.7938514,1.13528682 24.0308107,0.0122248062 L0.0204026016,0.0122248062 Z" id="路径"></path>
                    <path d="M16.1307467,9.45993798 C16.1692224,9.46104264 16.2076179,9.46266279 16.2460937,9.46376744 C16.4750205,9.47120543 16.7045096,9.47613953 16.9354446,9.47613953 C18.8702377,9.47613953 20.4478247,8.29003876 21.670053,6.35977132 L6.08808813,6.35977132 C8.95947317,8.1906938 12.406067,9.31758527 16.1307467,9.45993798 Z" id="路径"></path>
                </g>
                <path d="M18.5362643,0.590333717 C8.79451761,0.778441293 0.854520877,7.91791997 0,16.9994246 L18.5365854,16.9994246 L18.5365854,0.590333717 L18.5362643,0.590333717 Z" id="2" fill="#283991"></path>
                <g id="1" transform="translate(0.926829, 2.317606)" fill="#EFEFEF">
                    <polygon id="路径" points="3.16349021 9.27914463 3.44608176 10.1514174 4.36168464 10.1514174 3.62097836 10.6907975 3.9038832 11.5636983 3.16349021 11.0240041 2.42333219 11.5636983 2.70568877 10.6907975 1.96521745 10.1514174 2.88082034 10.1514174"></polygon>
                    <polygon id="路径" points="3.16349021 12.3608347 3.44608176 13.233657 4.36168464 13.233657 3.62097836 13.7730372 3.9038832 14.645938 3.16349021 14.1062438 2.42333219 14.645938 2.70568877 13.7730372 1.96521745 13.233657 2.88082034 13.233657"></polygon>
                    <polygon id="路径" points="6.2383181 4.65547107 6.52098798 5.52805785 7.43627757 5.52805785 6.69580625 6.06775207 6.97847613 6.94002479 6.2383181 6.40095868 5.49784679 6.94002479 5.78051666 6.06775207 5.03973205 5.52805785 5.95533494 5.52805785"></polygon>
                    <polygon id="路径" points="6.2383181 7.73771074 6.52098798 8.61029752 7.43627757 8.61029752 6.69580625 9.14936364 6.97847613 10.0222645 6.2383181 9.48319835 5.49784679 10.0222645 5.78051666 9.14936364 5.03973205 8.61029752 5.95533494 8.61029752"></polygon>
                    <polygon id="路径" points="6.2383181 10.8199504 6.52098798 11.6928512 7.43627757 11.6928512 6.69580625 12.2316033 6.97847613 13.1045041 6.2383181 12.5648884 5.49784679 13.1045041 5.78051666 12.2316033 5.03973205 11.6928512 5.95533494 11.6928512"></polygon>
                    <path d="M0.829055307,13.1045041 L0.546150464,12.2316033 L1.28662178,11.6925372 L0.371567159,11.6925372 L0.351046376,11.6288636 C0.250557197,11.9404008 0.159780144,12.2557066 0.0760522157,12.5745455 L0.0889756098,12.5648884 L0.829055307,13.1045041 Z" id="路径"></path>
                    <path d="M2.42333219,8.48145868 L3.16349021,7.94184298 L3.90396153,8.48145868 L3.62105668,7.60855785 L4.361528,7.06894215 L3.44592511,7.06894215 L3.16325524,6.19666942 L2.88058537,7.06894215 L2.5431673,7.06894215 C2.48050842,7.16409917 2.41988595,7.25980579 2.35895019,7.35637603 L2.70576709,7.60855785 L2.42333219,8.48145868 Z" id="路径"></path>
                    <path d="M6.2383181,3.31871901 L6.97847613,3.85778512 L6.69580625,2.9855124 L7.43596427,2.44589669 L6.90727997,2.44589669 C6.45825077,2.78240083 6.02504294,3.13853306 5.60883133,3.51429339 L5.4972202,3.85778512 L6.2383181,3.31871901 Z" id="路径"></path>
                    <path d="M8.57267468,2.31697934 L9.313146,1.77736364 L10.053304,2.31697934 L9.77063415,1.44407851 L10.5107922,0.905012397 L9.59550258,0.905012397 L9.55712401,0.787557851 C9.24696256,0.94638843 8.94001237,1.11165702 8.64003298,1.28752479 L8.85503126,1.444 L8.57267468,2.31697934 Z" id="路径"></path>
                    <polygon id="路径" points="9.313146 3.11466529 9.59581587 3.98670248 10.5111055 3.98670248 9.77063415 4.52631818 10.053304 5.39921901 9.313146 4.85952479 8.57267468 5.39921901 8.85534456 4.52631818 8.11463827 3.98670248 9.03016283 3.98670248"></polygon>
                    <polygon id="路径" points="9.313146 6.19690496 9.59581587 7.06894215 10.5111055 7.06894215 9.77063415 7.60855785 10.053304 8.48145868 9.313146 7.94176446 8.57267468 8.48145868 8.85534456 7.60855785 8.11463827 7.06894215 9.03016283 7.06894215"></polygon>
                    <polygon id="路径" points="9.313146 9.27914463 9.59581587 10.1514174 10.5111055 10.1514174 9.77063415 10.6907975 10.053304 11.5636983 9.313146 11.0240041 8.57267468 11.5636983 8.85534456 10.6907975 8.11463827 10.1514174 9.03016283 10.1514174"></polygon>
                    <polygon id="路径" points="9.313146 12.3608347 9.59581587 13.233657 10.5111055 13.233657 9.77063415 13.7730372 10.053304 14.645938 9.313146 14.1062438 8.57267468 14.645938 8.85534456 13.7730372 8.11463827 13.233657 9.03016283 13.233657"></polygon>
                    <polygon id="路径" points="12.3879739 1.5732314 12.6706438 2.44581818 13.5859334 2.44581818 12.8457753 2.9855124 13.1281319 3.85778512 12.3879739 3.31871901 11.6472676 3.85778512 11.9301724 2.9855124 11.1894662 2.44581818 12.1049907 2.44581818"></polygon>
                    <polygon id="路径" points="12.3879739 4.65547107 12.6706438 5.52805785 13.5859334 5.52805785 12.8457753 6.06775207 13.1281319 6.94002479 12.3879739 6.40095868 11.6472676 6.94002479 11.9301724 6.06775207 11.1894662 5.52805785 12.1049907 5.52805785"></polygon>
                    <polygon id="路径" points="12.3879739 7.73771074 12.6706438 8.61029752 13.5859334 8.61029752 12.8457753 9.14936364 13.1281319 10.0222645 12.3879739 9.48319835 11.6472676 10.0222645 11.9301724 9.14936364 11.1894662 8.61029752 12.1049907 8.61029752"></polygon>
                    <polygon id="路径" points="12.3879739 10.8199504 12.6706438 11.6928512 13.5859334 11.6928512 12.8457753 12.2316033 13.1281319 13.1045041 12.3879739 12.5648884 11.6472676 13.1045041 11.9301724 12.2316033 11.1894662 11.6928512 12.1049907 11.6928512"></polygon>
                    <polygon id="路径" points="15.4628018 0.0324256198 15.7454717 0.905012397 16.6607613 0.905012397 15.9202899 1.44407851 16.2029598 2.31697934 15.4628018 1.77728512 14.7220955 2.31697934 15.0050003 1.44407851 14.2642941 0.905012397 15.1795836 0.905012397"></polygon>
                    <polygon id="路径" points="15.4628018 3.11466529 15.7454717 3.98670248 16.6607613 3.98670248 15.9202899 4.52631818 16.2029598 5.39921901 15.4628018 4.85952479 14.7220955 5.39921901 15.0050003 4.52631818 14.2642941 3.98670248 15.1795836 3.98670248"></polygon>
                    <polygon id="路径" points="15.4628018 6.19690496 15.7454717 7.06894215 16.6607613 7.06894215 15.9202899 7.60855785 16.2029598 8.48145868 15.4628018 7.94176446 14.7220955 8.48145868 15.0050003 7.60855785 14.2642941 7.06894215 15.1795836 7.06894215"></polygon>
                    <polygon id="路径" points="15.4628018 9.27914463 15.7454717 10.1514174 16.6607613 10.1514174 15.9202899 10.6907975 16.2029598 11.5636983 15.4628018 11.0240041 14.7220955 11.5636983 15.0050003 10.6907975 14.2642941 10.1514174 15.1795836 10.1514174"></polygon>
                    <polygon id="路径" points="15.4628018 12.3608347 15.7454717 13.233657 16.6607613 13.233657 15.9202899 13.7730372 16.2029598 14.645938 15.4628018 14.1062438 14.7220955 14.645938 15.0050003 13.7730372 14.2642941 13.233657 15.1795836 13.233657"></polygon>
                </g>
            </g>
        </g>
    </g>
</svg>