<?xml version="1.0" encoding="utf-8"?>
<!-- Generator: Adobe Illustrator 18.0.0, SVG Export Plug-In . SVG Version: 6.00 Build 0)  -->
<!DOCTYPE svg PUBLIC "-//W3C//DTD SVG 1.1//EN" "http://www.w3.org/Graphics/SVG/1.1/DTD/svg11.dtd">
<svg version="1.1" id="nax_x5F_logo" xmlns="http://www.w3.org/2000/svg" xmlns:xlink="http://www.w3.org/1999/xlink" x="0px"
	 y="0px" viewBox="0 0 270.3 178.1" enable-background="new 0 0 270.3 178.1" xml:space="preserve">
<g>
	<g>
		<g>
			<defs>
				<path id="SVGID_1_" d="M181.4,0c-49.2,0-89,39.8-89,89c0,49.2,39.8,89,89,89s89-39.8,89-88.9C270.3,39.8,230.5,0,181.4,0z
					 M180.6,127c-0.6,0-1.3,0-1.9-0.1h-36V88.7h0.1c0.3-20.7,17.1-37.3,37.8-37.3c20.9,0,37.8,16.9,37.8,37.8
					C218.5,110,201.5,127,180.6,127z"/>
			</defs>
			<clipPath id="SVGID_2_">
				<use xlink:href="#SVGID_1_"  overflow="visible"/>
			</clipPath>
			<rect x="85.4" y="-2.5" clip-path="url(#SVGID_2_)" fill="#0081FF" width="97.3" height="132.2"/>
		</g>
		<g>
			<defs>
				<path id="SVGID_3_" d="M181.4,0c-49.2,0-89,39.8-89,89c0,49.2,39.8,89,89,89s89-39.8,89-88.9C270.3,39.8,230.5,0,181.4,0z
					 M180.6,127c-0.6,0-1.3,0-1.9-0.1h-36V88.7h0.1c0.3-20.7,17.1-37.3,37.8-37.3c20.9,0,37.8,16.9,37.8,37.8
					C218.5,110,201.5,127,180.6,127z"/>
			</defs>
			<clipPath id="SVGID_4_">
				<use xlink:href="#SVGID_3_"  overflow="visible"/>
			</clipPath>
			<rect x="181.4" y="-4.1" clip-path="url(#SVGID_4_)" fill="#0097FF" width="93.2" height="92.1"/>
		</g>
		<g>
			<defs>
				<path id="SVGID_5_" d="M181.4,0c-49.2,0-89,39.8-89,89c0,49.2,39.8,89,89,89s89-39.8,89-88.9C270.3,39.8,230.5,0,181.4,0z
					 M180.6,127c-0.6,0-1.3,0-1.9-0.1h-36V88.7h0.1c0.3-20.7,17.1-37.3,37.8-37.3c20.9,0,37.8,16.9,37.8,37.8
					C218.5,110,201.5,127,180.6,127z"/>
			</defs>
			<clipPath id="SVGID_6_">
				<use xlink:href="#SVGID_5_"  overflow="visible"/>
			</clipPath>
			<rect x="181.4" y="87.4" clip-path="url(#SVGID_6_)" fill="#00AEFF" width="93.2" height="92.8"/>
		</g>
	</g>
	<g>
		<g>
			<defs>
				<path id="SVGID_7_" d="M71.4,35.2C32,35.2,0,67.2,0,106.7s32,71.4,71.4,71.4s71.4-32,71.4-71.4S110.9,35.2,71.4,35.2z M91.3,127
					H71.2l0,0c-10.8-0.2-19.7-9-19.7-19.9c0-11,8.9-19.9,19.9-19.9s19.9,8.9,19.9,19.9c0,0.3,0,0.7,0,1L91.3,127L91.3,127z"/>
			</defs>
			<clipPath id="SVGID_8_">
				<use xlink:href="#SVGID_7_"  overflow="visible"/>
			</clipPath>
			<rect x="-0.3" y="35.2" clip-path="url(#SVGID_8_)" fill="#00E1FF" width="71.4" height="71.4"/>
		</g>
		<g>
			<defs>
				<path id="SVGID_9_" d="M71.4,35.2C32,35.2,0,67.2,0,106.7s32,71.4,71.4,71.4s71.4-32,71.4-71.4S110.9,35.2,71.4,35.2z M91.3,127
					H71.2l0,0c-10.8-0.2-19.7-9-19.7-19.9c0-11,8.9-19.9,19.9-19.9s19.9,8.9,19.9,19.9c0,0.3,0,0.7,0,1L91.3,127L91.3,127z"/>
			</defs>
			<clipPath id="SVGID_10_">
				<use xlink:href="#SVGID_9_"  overflow="visible"/>
			</clipPath>
			<rect x="-0.3" y="106.3" clip-path="url(#SVGID_10_)" fill="#00CFFF" width="71.4" height="71.8"/>
		</g>
		<g>
			<defs>
				<path id="SVGID_11_" d="M71.4,35.2C32,35.2,0,67.2,0,106.7s32,71.4,71.4,71.4s71.4-32,71.4-71.4S110.9,35.2,71.4,35.2z
					 M91.3,127H71.2l0,0c-10.8-0.2-19.7-9-19.7-19.9c0-11,8.9-19.9,19.9-19.9s19.9,8.9,19.9,19.9c0,0.3,0,0.7,0,1L91.3,127L91.3,127
					z"/>
			</defs>
			<clipPath id="SVGID_12_">
				<use xlink:href="#SVGID_11_"  overflow="visible"/>
			</clipPath>
			<rect x="71.1" y="35.2" clip-path="url(#SVGID_12_)" fill="#66EDFF" width="72.6" height="93.2"/>
		</g>
	</g>
	<rect x="91.4" y="104.9" fill="#66EDFF" width="51.4" height="46.1"/>
	<rect x="71" y="127" fill="#00A4FF" width="115.5" height="51.1"/>
</g>
</svg>
