<?xml version="1.0" encoding="UTF-8"?>
<svg width="16px" height="16px" viewBox="0 0 16 16" version="1.1" xmlns="http://www.w3.org/2000/svg" xmlns:xlink="http://www.w3.org/1999/xlink">
    <title>Referral_system_3</title>
    <g id="2021/1/11" stroke="none" stroke-width="1" fill="none" fill-rule="evenodd">
        <g id="Referral-system" transform="translate(-38.000000, -521.000000)" fill="#FAAD14" fill-rule="nonzero">
            <g id="Referral_system_3" transform="translate(38.000000, 521.000000)">
                <rect id="矩形" opacity="0" x="0" y="0" width="16" height="16"></rect>
                <path d="M8,1 C4.134375,1 1,4.134375 1,8 C1,11.865625 4.134375,15 8,15 C11.865625,15 15,11.865625 15,8 C15,4.134375 11.865625,1 8,1 Z M8.3484375,11.39375 L8.3515625,11.8890625 C8.3515625,11.9578125 8.2953125,12.015625 8.2265625,12.015625 L7.7828125,12.015625 C7.7140625,12.015625 7.6578125,11.959375 7.6578125,11.890625 L7.6578125,11.4 C6.2703125,11.296875 5.6171875,10.50625 5.546875,9.646875 C5.540625,9.5734375 5.5984375,9.5109375 5.671875,9.5109375 L6.39375,9.5109375 C6.4546875,9.5109375 6.5078125,9.5546875 6.5171875,9.6140625 C6.596875,10.109375 6.9828125,10.4796875 7.675,10.571875 L7.675,8.3421875 L7.2890625,8.24375 C6.471875,8.0484375 5.69375,7.5390625 5.69375,6.4828125 C5.69375,5.34375 6.559375,4.73125 7.665625,4.6234375 L7.665625,4.1078125 C7.665625,4.0390625 7.721875,3.9828125 7.790625,3.9828125 L8.2296875,3.9828125 C8.2984375,3.9828125 8.3546875,4.0390625 8.3546875,4.1078125 L8.3546875,4.61875 C9.425,4.7265625 10.228125,5.3515625 10.321875,6.325 C10.3296875,6.3984375 10.271875,6.4625 10.196875,6.4625 L9.4953125,6.4625 C9.4328125,6.4625 9.3796875,6.415625 9.371875,6.3546875 C9.309375,5.8984375 8.94375,5.5265625 8.3484375,5.4453125 L8.3484375,7.54375 L8.7453125,7.6359375 C9.7578125,7.8859375 10.446875,8.3703125 10.446875,9.4546875 C10.446875,10.63125 9.571875,11.2875 8.3484375,11.39375 Z M6.665625,6.4109375 C6.665625,6.8078125 6.9109375,7.115625 7.4390625,7.30625 C7.5125,7.3359375 7.5859375,7.359375 7.6734375,7.384375 L7.6734375,5.446875 C7.096875,5.5203125 6.665625,5.84375 6.665625,6.4109375 Z M8.4859375,8.5234375 C8.4421875,8.5140625 8.3984375,8.503125 8.3484375,8.4890625 L8.3484375,10.578125 C9.0140625,10.51875 9.4734375,10.153125 9.4734375,9.540625 C9.4734375,9.0609375 9.225,8.7484375 8.4859375,8.5234375 Z" id="形状"></path>
            </g>
        </g>
    </g>
</svg>