<?xml version="1.0" encoding="UTF-8"?>
<svg width="52px" height="52px" viewBox="0 0 52 52" version="1.1" xmlns="http://www.w3.org/2000/svg" xmlns:xlink="http://www.w3.org/1999/xlink">
    <title>Reset_traffic_32</title>
    <g id="2021/1/11" stroke="none" stroke-width="1" fill="none" fill-rule="evenodd">
        <g id="button-logic" transform="translate(-1804.000000, -163.000000)" fill-rule="nonzero">
            <g id="Reset_traffic_32" transform="translate(1804.000000, 163.000000)">
                <rect id="矩形" fill="#000000" opacity="0" x="0" y="0" width="52" height="52"></rect>
                <path d="M48.9337902,11.5463362 L44.6886931,22.2112069 L43.9822722,23.9892241 C43.7884171,24.4806034 43.2232804,24.7230603 42.7238572,24.5290948 L40.9167338,23.8340517 L30.0739937,19.6540948 C29.5745705,19.4601293 29.3281446,18.9073276 29.5252853,18.4159483 L30.2317062,16.637931 C30.4255613,16.1465517 30.990698,15.9040948 31.4901212,16.0980603 L40.4698815,19.5603448 C37.8741952,13.2758621 31.6609765,8.81788793 24.3437698,8.81788793 C14.7003024,8.81788793 6.88038671,16.5118534 6.88038671,26 C6.88038671,35.4881466 14.6970167,43.1821121 24.3437698,43.1821121 C31.9435449,43.1821121 38.3900468,38.3976293 40.791878,31.7284483 L44.8628341,31.7284483 C42.3262901,40.5377155 34.1120929,47 24.3437698,47 C12.5547541,47 3,37.5991379 3,26 C3,14.4008621 12.5547541,5 24.3437698,5 C32.4068256,5 39.4053216,9.40948276 43.0294253,15.9040948 L45.3195435,10.1530172 C45.5133985,9.66163793 46.0785353,9.41918103 46.5779585,9.61314655 L48.3850818,10.3081897 C48.8812193,10.5021552 49.1276453,11.0549569 48.9337902,11.5463362 Z" id="路径" fill="#48BE37"></path>
            </g>
        </g>
    </g>
</svg>