<?xml version="1.0" encoding="UTF-8"?>
<svg width="126px" height="135px" viewBox="0 0 126 135" version="1.1" xmlns="http://www.w3.org/2000/svg" xmlns:xlink="http://www.w3.org/1999/xlink">
    <title>star-6</title>
    <defs>
        <filter id="filter-1">
            <feColorMatrix in="SourceGraphic" type="matrix" values="0 0 0 0 0.619608 0 0 0 0 0.619608 0 0 0 0 0.619608 0 0 0 1.000000 0"></feColorMatrix>
        </filter>
    </defs>
    <g id="Kenny_fix" stroke="none" stroke-width="1" fill="none" fill-rule="evenodd">
        <g id="star-6" transform="translate(-131.000000, -351.000000)" filter="url(#filter-1)">
            <g transform="translate(131.000000, 351.000000)">
                <g id="编组" transform="translate(57.000000, 19.000000)" fill="#000000" fill-rule="nonzero">
                    <path d="M3.15127273,7.03619048 C7.25018182,7.03619048 7.25018182,0.377142857 3.15127273,0.377142857 C-0.947636364,0.377142857 -0.947636364,7.03619048 3.15127273,7.03619048 L3.15127273,7.03619048 Z" id="路径"></path>
                    <path d="M4.74109091,95.8712381 C8.84,95.8712381 8.84,89.2121905 4.74109091,89.2121905 C0.641454545,89.2121905 0.641454545,95.8712381 4.74109091,95.8712381 L4.74109091,95.8712381 Z" id="路径"></path>
                </g>
                <g id="编组" transform="translate(15.000000, 63.000000)" fill="#000000" fill-rule="nonzero">
                    <path d="M92.1211429,7.6272 C96.4152381,7.6272 96.4152381,0.6352 92.1211429,0.6352 C87.8270476,0.6344 87.8270476,7.6272 92.1211429,7.6272 L92.1211429,7.6272 Z" id="路径"></path>
                    <path d="M3.28533333,7.6264 C7.57942857,7.6264 7.57942857,0.6344 3.28533333,0.6344 C-1.0087619,0.6344 -1.00952381,7.6264 3.28533333,7.6264 L3.28533333,7.6264 Z" id="路径"></path>
                </g>
                <g id="编组" transform="translate(28.000000, 32.000000)" fill="#000000" fill-rule="nonzero">
                    <path d="M66.0701087,69.8158696 C70.3583696,69.8158696 70.3583696,63.1658696 66.0701087,63.1658696 C61.7818478,63.1658696 61.7818478,69.8158696 66.0701087,69.8158696 L66.0701087,69.8158696 Z" id="路径"></path>
                    <path d="M3.33869565,7.08369565 C7.62695652,7.08369565 7.62695652,0.433695652 3.33869565,0.433695652 C-0.950326087,0.432934783 -0.950326087,7.08369565 3.33869565,7.08369565 L3.33869565,7.08369565 Z" id="路径"></path>
                </g>
                <g id="编组" transform="translate(28.000000, 32.000000)" fill="#000000" fill-rule="nonzero">
                    <path d="M3.33717391,69.8143478 C7.62543478,69.8143478 7.62543478,63.1643478 3.33717391,63.1643478 C-0.951086957,63.1643478 -0.951086957,69.8143478 3.33717391,69.8143478 L3.33717391,69.8143478 Z" id="路径"></path>
                    <path d="M66.068587,7.08369565 C70.3568478,7.08369565 70.3568478,0.433695652 66.068587,0.433695652 C61.7803261,0.433695652 61.7803261,7.08369565 66.068587,7.08369565 L66.068587,7.08369565 Z" id="路径"></path>
                </g>
                <g id="编组" transform="translate(41.000000, 21.000000)" fill="#000000" fill-rule="nonzero">
                    <path d="M35.2315294,6.72330508 C39.5414118,6.72330508 39.5414118,0.0572033898 35.2315294,0.0572033898 C30.9216471,0.0572033898 30.9216471,6.72330508 35.2315294,6.72330508 L35.2315294,6.72330508 Z" id="路径"></path>
                    <path d="M3.83347059,89.9557627 C8.14335294,89.9557627 8.14335294,83.289661 3.83347059,83.289661 C-0.477176471,83.289661 -0.477176471,89.9557627 3.83347059,89.9557627 L3.83347059,89.9557627 Z" id="路径"></path>
                </g>
                <g id="编组" transform="translate(18.000000, 48.000000)" fill="#000000" fill-rule="nonzero">
                    <path d="M86.3508403,38.2842353 C90.6133613,38.2842353 90.6133613,31.6007059 86.3508403,31.6007059 C82.0883193,31.6007059 82.0883193,38.2842353 86.3508403,38.2842353 L86.3508403,38.2842353 Z" id="路径"></path>
                    <path d="M3.81630252,6.88388235 C8.07882353,6.88388235 8.07882353,0.200352941 3.81630252,0.200352941 C-0.446218487,0.200352941 -0.446218487,6.88388235 3.81630252,6.88388235 L3.81630252,6.88388235 Z" id="路径"></path>
                </g>
                <g id="编组" transform="translate(41.000000, 23.000000)" fill="#000000" fill-rule="nonzero">
                    <path d="M39.7380351,87.7231034 C43.9897544,87.7231034 43.9897544,81.0927586 39.7380351,81.0927586 C35.4863158,81.0927586 35.4863158,87.7231034 39.7380351,87.7231034 L39.7380351,87.7231034 Z" id="路径"></path>
                    <path d="M3.4294386,7.15682759 C7.68115789,7.15682759 7.68115789,0.526482759 3.4294386,0.526482759 C-0.822280702,0.525724138 -0.822280702,7.15682759 3.4294386,7.15682759 L3.4294386,7.15682759 Z" id="路径"></path>
                </g>
                <g id="编组" transform="translate(19.000000, 45.000000)" fill="#000000" fill-rule="nonzero">
                    <path d="M3.41115652,43.6950345 C7.67491304,43.6950345 7.67491304,37.0646897 3.41115652,37.0646897 C-0.8526,37.063931 -0.8526,43.6950345 3.41115652,43.6950345 L3.41115652,43.6950345 Z" id="路径"></path>
                    <path d="M83.7545217,7.18186207 C88.0182783,7.18186207 88.0182783,0.551517241 83.7545217,0.551517241 C79.4907652,0.551517241 79.4907652,7.18186207 83.7545217,7.18186207 L83.7545217,7.18186207 Z" id="路径"></path>
                </g>
                <g id="编组" transform="translate(26.000000, 30.000000)" fill="#000000" fill-rule="nonzero">
                    <g transform="translate(24.412371, 0.765306)" id="路径">
                        <path d="M3.77323711,7.17704082 C8.07286598,7.17704082 8.07286598,0.488265306 3.77323711,0.488265306 C-0.526391753,0.488265306 -0.526391753,7.17704082 3.77323711,7.17704082 L3.77323711,7.17704082 Z"></path>
                        <path d="M19.4558969,73.677551 C23.7555258,73.677551 23.7555258,66.9887755 19.4558969,66.9887755 C15.156268,66.9887755 15.156268,73.677551 19.4558969,73.677551 L19.4558969,73.677551 Z"></path>
                    </g>
                    <g transform="translate(0.000000, 26.785714)" id="路径">
                        <path d="M70.4014639,7.13647959 C74.7010928,7.13647959 74.7010928,0.447704082 70.4014639,0.447704082 C66.1018351,0.447704082 66.1018351,7.13647959 70.4014639,7.13647959 L70.4014639,7.13647959 Z"></path>
                        <path d="M3.76637113,21.2311224 C8.066,21.2311224 8.066,14.5423469 3.76637113,14.5423469 C-0.533257732,14.5423469 -0.534020619,21.2311224 3.76637113,21.2311224 L3.76637113,21.2311224 Z"></path>
                    </g>
                    <g transform="translate(4.577320, 15.306122)" id="路径">
                        <path d="M61.0347423,44.3142857 C65.3343711,44.3142857 65.3343711,37.6255102 61.0347423,37.6255102 C56.7351134,37.6255102 56.7351134,44.3142857 61.0347423,44.3142857 L61.0347423,44.3142857 Z"></path>
                        <path d="M3.98074227,7.0125 C8.28037113,7.0125 8.28037113,0.32372449 3.98074227,0.32372449 C-0.318886598,0.32372449 -0.318886598,7.0125 3.98074227,7.0125 L3.98074227,7.0125 Z"></path>
                    </g>
                    <g transform="translate(15.257732, 5.357143)" id="路径">
                        <path d="M3.23387629,64.2290816 C7.53350515,64.2290816 7.53350515,57.5403061 3.23387629,57.5403061 C-1.06575258,57.5403061 -1.06575258,64.2290816 3.23387629,64.2290816 L3.23387629,64.2290816 Z"></path>
                        <path d="M40.4162062,6.99489796 C44.7158351,6.99489796 44.7158351,0.306122449 40.4162062,0.306122449 C36.1165773,0.306122449 36.1158144,6.99489796 40.4162062,6.99489796 L40.4162062,6.99489796 Z"></path>
                    </g>
                    <g transform="translate(26.701031, 0.000000)" id="路径">
                        <path d="M13.6480412,6.91530612 C17.9476701,6.91530612 17.9476701,0.226530612 13.6480412,0.226530612 C9.34764948,0.225765306 9.34764948,6.91530612 13.6480412,6.91530612 L13.6480412,6.91530612 Z"></path>
                        <path d="M3.33305155,74.4420918 C7.63268041,74.4420918 7.63268041,67.7533163 3.33305155,67.7533163 C-0.96657732,67.7533163 -0.96657732,74.4420918 3.33305155,74.4420918 L3.33305155,74.4420918 Z"></path>
                    </g>
                    <g transform="translate(0.000000, 29.081633)" id="路径">
                        <path d="M70.7417113,17.0617347 C75.0413402,17.0617347 75.0413402,10.3729592 70.7417113,10.3729592 C66.4413196,10.3729592 66.4413196,17.0617347 70.7417113,17.0617347 L70.7417113,17.0617347 Z"></path>
                        <path d="M3.4268866,6.7125 C7.72651546,6.7125 7.72651546,0.0237244898 3.4268866,0.0237244898 C-0.872742268,0.0237244898 -0.872742268,6.7125 3.4268866,6.7125 L3.4268866,6.7125 Z"></path>
                    </g>
                    <g transform="translate(12.969072, 6.122449)" id="路径">
                        <path d="M44.2664948,62.3808673 C48.5661237,62.3808673 48.5661237,55.6920918 44.2664948,55.6920918 C39.966866,55.6920918 39.966866,62.3808673 44.2664948,62.3808673 L44.2664948,62.3808673 Z"></path>
                        <path d="M3.96395876,7.31326531 C8.26358763,7.31326531 8.26358763,0.624489796 3.96395876,0.624489796 C-0.335670103,0.624489796 -0.335670103,7.31326531 3.96395876,7.31326531 L3.96395876,7.31326531 Z"></path>
                    </g>
                    <g transform="translate(6.103093, 13.775510)" id="路径">
                        <path d="M3.53369072,47.409949 C7.83331959,47.409949 7.83331959,40.7211735 3.53369072,40.7211735 C-0.765938144,40.7211735 -0.765938144,47.409949 3.53369072,47.409949 L3.53369072,47.409949 Z"></path>
                        <path d="M58.4271959,6.97806122 C62.7268247,6.97806122 62.7268247,0.289285714 58.4271959,0.289285714 C54.127567,0.288520408 54.127567,6.97806122 58.4271959,6.97806122 L58.4271959,6.97806122 Z"></path>
                    </g>
                </g>
                <g id="编组" transform="translate(37.000000, 41.000000)" fill="#000000" fill-rule="nonzero">
                    <g transform="translate(21.101449, 0.000000)" id="路径">
                        <path d="M3.72515942,6.82394203 C7.97257971,6.82394203 7.97257971,0.110608696 3.72515942,0.110608696 C-0.52226087,0.110608696 -0.52226087,6.82394203 3.72515942,6.82394203 L3.72515942,6.82394203 Z"></path>
                        <path d="M4.82017391,52.3724493 C9.0675942,52.3724493 9.0675942,45.6591159 4.82017391,45.6591159 C0.572753623,45.6591159 0.572,52.3724493 4.82017391,52.3724493 L4.82017391,52.3724493 Z"></path>
                    </g>
                    <g transform="translate(0.000000, 22.275362)" id="路径">
                        <path d="M48.4285797,7.32321739 C52.676,7.32321739 52.676,0.609884058 48.4285797,0.609884058 C44.1811594,0.609884058 44.1811594,7.32321739 48.4285797,7.32321739 L48.4285797,7.32321739 Z"></path>
                        <path d="M3.73797101,7.32244928 C7.9853913,7.32244928 7.9853913,0.609115942 3.73797101,0.609115942 C-0.509449275,0.609115942 -0.509449275,7.32244928 3.73797101,7.32244928 L3.73797101,7.32244928 Z"></path>
                    </g>
                    <g transform="translate(6.782609, 6.144928)" id="路径">
                        <path d="M35.1007536,39.5572029 C39.3481739,39.5572029 39.3481739,32.8438696 35.1007536,32.8438696 C30.8533333,32.8438696 30.8533333,39.5572029 35.1007536,39.5572029 L35.1007536,39.5572029 Z"></path>
                        <path d="M3.50057971,7.34856522 C7.748,7.34856522 7.748,0.635231884 3.50057971,0.635231884 C-0.74684058,0.635231884 -0.747594203,7.34856522 3.50057971,7.34856522 L3.50057971,7.34856522 Z"></path>
                    </g>
                    <g transform="translate(6.782609, 6.144928)" id="路径">
                        <path d="M3.49982609,39.5572029 C7.74724638,39.5572029 7.74724638,32.8438696 3.49982609,32.8438696 C-0.748347826,32.8438696 -0.748347826,39.5572029 3.49982609,39.5572029 L3.49982609,39.5572029 Z"></path>
                        <path d="M35.1,7.34856522 C39.3474203,7.34856522 39.3474203,0.635231884 35.1,0.635231884 C30.8525797,0.635231884 30.8525797,7.34856522 35.1,7.34856522 L35.1,7.34856522 Z"></path>
                    </g>
                    <g transform="translate(13.565217, 0.768116)" id="路径">
                        <path d="M19.2106087,7.0635942 C23.458029,7.0635942 23.458029,0.35026087 19.2106087,0.35026087 C14.9631884,0.35026087 14.9631884,7.0635942 19.2106087,7.0635942 L19.2106087,7.0635942 Z"></path>
                        <path d="M3.47269565,49.694029 C7.72011594,49.694029 7.72011594,42.9806957 3.47269565,42.9806957 C-0.774724638,42.9806957 -0.774724638,49.694029 3.47269565,49.694029 L3.47269565,49.694029 Z"></path>
                    </g>
                    <g transform="translate(1.507246, 14.594203)" id="路径">
                        <path d="M45.4886957,23.0242754 C49.7361159,23.0242754 49.7361159,16.310942 45.4886957,16.310942 C41.2412754,16.310942 41.2412754,23.0242754 45.4886957,23.0242754 L45.4886957,23.0242754 Z"></path>
                        <path d="M3.6626087,6.98294203 C7.91002899,6.98294203 7.91002899,0.269608696 3.6626087,0.269608696 C-0.584811594,0.269608696 -0.584811594,6.98294203 3.6626087,6.98294203 L3.6626087,6.98294203 Z"></path>
                    </g>
                    <g transform="translate(13.565217, 1.536232)" id="路径">
                        <path d="M21.742029,48.8053188 C25.9894493,48.8053188 25.9894493,42.0919855 21.742029,42.0919855 C17.4946087,42.0919855 17.4938551,48.8053188 21.742029,48.8053188 L21.742029,48.8053188 Z"></path>
                        <path d="M3.29484058,7.31784058 C7.54226087,7.31784058 7.54226087,0.604507246 3.29484058,0.604507246 C-0.95257971,0.604507246 -0.95257971,7.31784058 3.29484058,7.31784058 L3.29484058,7.31784058 Z"></path>
                    </g>
                    <g transform="translate(2.260870, 13.057971)" id="路径">
                        <path d="M3.47043478,25.9408116 C7.71785507,25.9408116 7.71785507,19.2274783 3.47043478,19.2274783 C-0.77773913,19.2274783 -0.77773913,25.9408116 3.47043478,25.9408116 L3.47043478,25.9408116 Z"></path>
                        <path d="M44.1743768,7.13810145 C48.4217971,7.13810145 48.4217971,0.424768116 44.1743768,0.424768116 C39.9269565,0.424768116 39.9269565,7.13810145 44.1743768,7.13810145 L44.1743768,7.13810145 Z"></path>
                    </g>
                </g>
                <g id="编组" transform="translate(58.000000, 50.000000)" fill="#000000" fill-rule="nonzero">
                    <path d="M3.7256,7.412 C8.2344,7.412 8.2344,0.658363636 3.7256,0.658363636 C-0.7832,0.658363636 -0.7832,7.412 3.7256,7.412 L3.7256,7.412 Z" id="路径"></path>
                    <path d="M4.3896,33.5943182 C8.8984,33.5943182 8.8984,26.8406818 4.3896,26.8406818 C-0.1192,26.8406818 -0.1192,33.5943182 4.3896,33.5943182 L4.3896,33.5943182 Z" id="路径"></path>
                </g>
                <g id="编组" transform="translate(46.000000, 63.000000)" fill="#000000" fill-rule="nonzero">
                    <path d="M29.587186,7.6272 C33.9124884,7.6272 33.9124884,0.6352 29.587186,0.6352 C25.2618837,0.6352 25.2618837,7.6272 29.587186,7.6272 L29.587186,7.6272 Z" id="路径"></path>
                    <path d="M3.5824186,7.6264 C7.90772093,7.6264 7.90772093,0.6344 3.5824186,0.6344 C-0.742883721,0.6344 -0.742883721,7.6264 3.5824186,7.6264 L3.5824186,7.6264 Z" id="路径"></path>
                </g>
                <g id="编组" transform="translate(50.000000, 54.000000)" fill="#000000" fill-rule="nonzero">
                    <path d="M21.6590909,25.6275882 C25.9287879,25.6275882 25.9287879,18.9440588 21.6590909,18.9440588 C17.3893939,18.9440588 17.3893939,25.6275882 21.6590909,25.6275882 L21.6590909,25.6275882 Z" id="路径"></path>
                    <path d="M3.50833333,7.306 C7.7780303,7.306 7.7780303,0.622470588 3.50833333,0.622470588 C-0.761363636,0.621705882 -0.761363636,7.306 3.50833333,7.306 L3.50833333,7.306 Z" id="路径"></path>
                </g>
                <g id="编组" transform="translate(50.000000, 54.000000)" fill="#000000" fill-rule="nonzero">
                    <path d="M3.50833333,25.6275882 C7.7780303,25.6275882 7.7780303,18.9440588 3.50833333,18.9440588 C-0.761363636,18.9432941 -0.761363636,25.6275882 3.50833333,25.6275882 L3.50833333,25.6275882 Z" id="路径"></path>
                    <path d="M21.6583333,7.306 C25.9280303,7.306 25.9280303,0.622470588 21.6583333,0.622470588 C17.3886364,0.621705882 17.3886364,7.306 21.6583333,7.306 L21.6583333,7.306 Z" id="路径"></path>
                </g>
                <g id="编组" transform="translate(26.000000, 30.000000)" fill="#000000" fill-rule="nonzero">
                    <g transform="translate(24.412371, 0.765306)" id="路径">
                        <path d="M3.77323711,7.17704082 C8.07286598,7.17704082 8.07286598,0.488265306 3.77323711,0.488265306 C-0.526391753,0.488265306 -0.526391753,7.17704082 3.77323711,7.17704082 L3.77323711,7.17704082 Z"></path>
                        <path d="M19.4558969,73.677551 C23.7555258,73.677551 23.7555258,66.9887755 19.4558969,66.9887755 C15.156268,66.9887755 15.156268,73.677551 19.4558969,73.677551 L19.4558969,73.677551 Z"></path>
                    </g>
                    <g transform="translate(0.000000, 26.785714)" id="路径">
                        <path d="M70.4014639,7.13647959 C74.7010928,7.13647959 74.7010928,0.447704082 70.4014639,0.447704082 C66.1018351,0.447704082 66.1018351,7.13647959 70.4014639,7.13647959 L70.4014639,7.13647959 Z"></path>
                        <path d="M3.76637113,21.2311224 C8.066,21.2311224 8.066,14.5423469 3.76637113,14.5423469 C-0.533257732,14.5423469 -0.534020619,21.2311224 3.76637113,21.2311224 L3.76637113,21.2311224 Z"></path>
                    </g>
                    <g transform="translate(4.577320, 15.306122)" id="路径">
                        <path d="M61.0347423,44.3142857 C65.3343711,44.3142857 65.3343711,37.6255102 61.0347423,37.6255102 C56.7351134,37.6255102 56.7351134,44.3142857 61.0347423,44.3142857 L61.0347423,44.3142857 Z"></path>
                        <path d="M3.98074227,7.0125 C8.28037113,7.0125 8.28037113,0.32372449 3.98074227,0.32372449 C-0.318886598,0.32372449 -0.318886598,7.0125 3.98074227,7.0125 L3.98074227,7.0125 Z"></path>
                    </g>
                    <g transform="translate(15.257732, 5.357143)" id="路径">
                        <path d="M3.23387629,64.2290816 C7.53350515,64.2290816 7.53350515,57.5403061 3.23387629,57.5403061 C-1.06575258,57.5403061 -1.06575258,64.2290816 3.23387629,64.2290816 L3.23387629,64.2290816 Z"></path>
                        <path d="M40.4162062,6.99489796 C44.7158351,6.99489796 44.7158351,0.306122449 40.4162062,0.306122449 C36.1165773,0.306122449 36.1158144,6.99489796 40.4162062,6.99489796 L40.4162062,6.99489796 Z"></path>
                    </g>
                    <g transform="translate(26.701031, 0.000000)" id="路径">
                        <path d="M13.6480412,6.91530612 C17.9476701,6.91530612 17.9476701,0.226530612 13.6480412,0.226530612 C9.34764948,0.225765306 9.34764948,6.91530612 13.6480412,6.91530612 L13.6480412,6.91530612 Z"></path>
                        <path d="M3.33305155,74.4420918 C7.63268041,74.4420918 7.63268041,67.7533163 3.33305155,67.7533163 C-0.96657732,67.7533163 -0.96657732,74.4420918 3.33305155,74.4420918 L3.33305155,74.4420918 Z"></path>
                    </g>
                    <g transform="translate(0.000000, 29.081633)" id="路径">
                        <path d="M70.7417113,17.0617347 C75.0413402,17.0617347 75.0413402,10.3729592 70.7417113,10.3729592 C66.4413196,10.3729592 66.4413196,17.0617347 70.7417113,17.0617347 L70.7417113,17.0617347 Z"></path>
                        <path d="M3.4268866,6.7125 C7.72651546,6.7125 7.72651546,0.0237244898 3.4268866,0.0237244898 C-0.872742268,0.0237244898 -0.872742268,6.7125 3.4268866,6.7125 L3.4268866,6.7125 Z"></path>
                    </g>
                    <g transform="translate(12.969072, 6.122449)" id="路径">
                        <path d="M44.2664948,62.3808673 C48.5661237,62.3808673 48.5661237,55.6920918 44.2664948,55.6920918 C39.966866,55.6920918 39.966866,62.3808673 44.2664948,62.3808673 L44.2664948,62.3808673 Z"></path>
                        <path d="M3.96395876,7.31326531 C8.26358763,7.31326531 8.26358763,0.624489796 3.96395876,0.624489796 C-0.335670103,0.624489796 -0.335670103,7.31326531 3.96395876,7.31326531 L3.96395876,7.31326531 Z"></path>
                    </g>
                    <g transform="translate(6.103093, 13.775510)" id="路径">
                        <path d="M3.53369072,47.409949 C7.83331959,47.409949 7.83331959,40.7211735 3.53369072,40.7211735 C-0.765938144,40.7211735 -0.765938144,47.409949 3.53369072,47.409949 L3.53369072,47.409949 Z"></path>
                        <path d="M58.4271959,6.97806122 C62.7268247,6.97806122 62.7268247,0.289285714 58.4271959,0.289285714 C54.127567,0.288520408 54.127567,6.97806122 58.4271959,6.97806122 L58.4271959,6.97806122 Z"></path>
                    </g>
                </g>
                <path d="M60.5,14 C61.8629714,14 63,12.8629714 63,11.5 C63,10.1370286 61.8629714,9 60.5,9 C59.1370286,9 58,10.1370286 58,11.5 C58,12.8629714 59.1370286,14 60.5,14 L60.5,14 Z" id="路径" fill="#9E9E9E" fill-rule="nonzero"></path>
                <path d="M59.5,3 C60.3179936,3 61,2.31799356 61,1.5 C61,0.682006443 60.3179936,0 59.5,0 C58.6820064,0 58,0.682006443 58,1.5 C58.0006903,2.31730327 58.6826967,3 59.5,3 L59.5,3 Z" id="路径" fill="#9E9E9E" fill-rule="nonzero"></path>
                <path d="M101,30 C103.666667,30 103.666667,26 101,26 C98.3333333,26 98.3333333,30 101,30 L101,30 Z" id="路径" fill="#9E9E9E" fill-rule="nonzero"></path>
                <path d="M105.058872,22.0755804 C105.056222,22.0852588 105.053573,22.0940574 105.050924,22.1037358 C104.79836,23.0337464 105.517196,24.0147887 106.500961,23.9998311 C106.773836,23.9963116 107.103229,23.9417604 107.345196,23.800983 C107.603059,23.6505272 107.786742,23.4059265 107.869753,23.1199725 C107.920089,22.9501598 108.025177,22.8648135 107.799105,23.2581103 C108.13468,22.6730043 108.045488,21.9216051 107.564203,21.442962 C107.557138,21.4359232 107.550074,21.4288843 107.543009,21.4218454 C106.754408,20.6387713 105.352058,20.9968737 105.058872,22.0755804 L105.058872,22.0755804 Z" id="路径" fill="#9E9E9E" fill-rule="nonzero"></path>
                <path d="M118.24678,68.2714898 C118.263274,68.2509348 118.279768,68.2303797 118.297047,68.2090341 C118.715677,67.691995 119,67.1923488 119,66.5005916 C119,65.8088345 118.715677,65.3091883 118.297047,64.7921492 C118.280553,64.7715942 118.263274,64.7510391 118.24678,64.7296935 C117.701697,64.0577008 116.614672,63.8679617 115.826107,64.0861617 C114.759504,64.3818385 114,65.3874556 114,66.5005916 C114,67.383669 114.475181,68.2169399 115.232328,68.6628267 C116.122997,69.1877715 117.55011,69.1308498 118.24678,68.2714898 L118.24678,68.2714898 Z" id="路径" fill="#9E9E9E" fill-rule="nonzero"></path>
                <path d="M124.00816,66.0118778 C124.005639,66.069226 124.003119,66.1272044 124.000598,66.1839225 C123.982325,66.6143493 124.385598,67.0176776 124.815966,66.9994018 C124.873307,66.996881 124.930647,66.9943601 124.987987,66.9918393 C127.696849,66.8771429 124.12284,63.3032766 124.00816,66.0118778 L124.00816,66.0118778 Z" id="路径" fill="#9E9E9E" fill-rule="nonzero"></path>
                <path d="M110.5,47 C112.5,47 112.5,44 110.5,44 C108.5,44.0007876 108.5,47 110.5,47 L110.5,47 Z" id="路径" fill="#9E9E9E" fill-rule="nonzero"></path>
                <path d="M77.2907302,14.692721 C77.7407548,15.043651 78.2787694,15.1435362 78.7415559,14.7280138 C78.9672399,14.5255798 79.0169441,14.133364 78.8517112,13.8809874 C79.0142574,14.1293686 78.8852951,14.5269116 78.7059569,14.692721 C79.3534551,14.0940758 78.8483528,13 77.9986794,13 C77.6460481,13 77.3128956,13.1897819 77.1349007,13.4914351 C76.9280237,13.8410333 76.9434723,14.4216992 77.2907302,14.692721 L77.2907302,14.692721 Z" id="路径" fill="#9E9E9E" fill-rule="nonzero"></path>
                <path d="M112.504327,86.8705282 C112.817384,86.7166817 113,86.3436825 113,85.997057 C113,84.9892057 111.638453,84.6174624 111.134705,85.4865379 C110.907366,85.8790034 110.973207,86.3914063 111.291233,86.712914 C111.626651,87.0520042 112.094993,87.0720984 112.504327,86.8705282 L112.504327,86.8705282 Z" id="路径" fill="#9E9E9E" fill-rule="nonzero"></path>
                <path d="M99.0058982,105.897359 C99.0281108,106.138868 99.0471502,106.384906 99.1106148,106.619623 C99.3295677,107.42717 100.147468,108 101.015346,108 C102.019674,108 103.088259,107.142642 102.991476,106.12 C102.984336,106.044529 102.989096,105.973585 102.995442,105.898113 C103.077946,104.864906 102.02602,104 101.000274,104 C99.9848398,103.999246 98.9107013,104.864906 99.0058982,105.897359 L99.0058982,105.897359 Z" id="路径" fill="#9E9E9E" fill-rule="nonzero"></path>
                <path d="M106.5,114 C107.317554,114 108,113.317554 108,112.5 C108,111.682446 107.317554,111 106.5,111 C105.682446,111 105,111.682446 105,112.5 C105.000768,113.317554 105.682446,114 106.5,114 L106.5,114 Z" id="路径" fill="#9E9E9E" fill-rule="nonzero"></path>
                <path d="M85,118 C86.3333333,118 86.3333333,116 85,116 C83.6666667,116 83.6666667,118 85,118 L85,118 Z" id="路径" fill="#9E9E9E" fill-rule="nonzero"></path>
                <path d="M62,125 C63.0897436,125 64,124.090456 64,123 C64,121.910256 63.0904558,121 62,121 C60.9102564,121 60,121.909544 60,123 C60.0007123,124.090456 60.9102564,125 62,125 L62,125 Z" id="路径" fill="#9E9E9E" fill-rule="nonzero"></path>
                <path d="M61.9847362,134.792013 C62.0009221,134.77968 62.0171079,134.768119 62.0332937,134.755787 C62.1658632,134.656359 62.1997764,134.715707 61.9862778,134.750392 C63.0676444,134.574658 63.2980995,133.080921 62.6090463,132.391089 C61.9192222,131.701257 60.4270442,131.933256 60.2505418,133.013865 C60.3445736,132.844297 60.3553642,132.811925 60.2821426,132.916749 C60.2574785,132.949121 60.2328144,132.982263 60.2089211,133.015406 C59.441251,134.038978 60.9611761,135.557379 61.9847362,134.792013 L61.9847362,134.792013 Z" id="路径" fill="#9E9E9E" fill-rule="nonzero"></path>
                <path d="M39.5,118 C40.3175204,118 41,117.31752 41,116.5 C41,115.68248 40.3175204,115 39.5,115 C38.6824803,115 38,115.68248 38,116.5 C37.9991921,117.31752 38.6824803,118 39.5,118 L39.5,118 Z" id="路径" fill="#9E9E9E" fill-rule="nonzero"></path>
                <path d="M23.9195758,103.09913 C23.9069819,103.09455 23.894388,103.089316 23.8824569,103.084081 C22.9684048,102.714398 22,103.63239 22,104.5 C22,105.36761 22.9684048,106.285602 23.8824569,105.915919 C23.8950508,105.911339 23.9076447,105.906104 23.9195758,105.90087 C24.536677,105.651579 25,105.205342 25,104.5 C25,103.794658 24.536677,103.348421 23.9195758,103.09913 L23.9195758,103.09913 Z" id="路径" fill="#9E9E9E" fill-rule="nonzero"></path>
                <path d="M15.5,108.6465 C15.689,108.6465 15.689,108.3535 15.5,108.3535 C15.311,108.3535 15.311,108.6465 15.5,108.6465 L15.5,108.6465 Z" id="路径" fill="#9E9E9E" fill-rule="nonzero"></path>
                <path d="M14.0050277,109.323348 C14.0422264,109.671164 14.054626,110.029271 14.2599942,110.339355 C14.5025611,110.705694 15.0109443,111 15.499953,111 C15.8680658,111 16.2571029,110.825749 16.5151693,110.596616 C16.9135061,110.243997 16.9445051,109.787789 16.9948784,109.323348 C17.0723758,108.604391 16.2563279,108 15.499953,108 C14.7435781,108.000686 13.9283052,108.604391 14.0050277,109.323348 L14.0050277,109.323348 Z" id="路径" fill="#9E9E9E" fill-rule="nonzero"></path>
                <path d="M13.3829701,87.9836852 C13.3727963,88.0510207 13.3633492,88.1139648 13.3400949,88.1776408 C13.4570933,87.9763661 13.5733651,87.7743595 13.6896369,87.5730849 C13.6823699,87.5825997 13.6743762,87.5913826 13.6663825,87.6008974 C13.867678,87.4830602 14.0682468,87.365223 14.2695422,87.2473859 C14.4381363,87.2034714 14.6060036,87.2027395 14.773871,87.245922 C14.3821805,87.1895651 14.0500793,87.1778546 13.693997,87.3879122 C13.2681517,87.6396885 13,88.1088414 13,88.6072707 C13,88.9798118 13.1489732,89.3421062 13.4105846,89.605593 C13.7942814,89.9927723 14.2637286,90.0483973 14.773871,89.9686193 C15.1989896,89.9020157 15.5935869,89.6458479 15.8123231,89.2681835 C16.0579472,88.8451407 16.0143453,88.4425914 15.9489424,87.9836852 C15.8660988,87.4040141 15.2011697,87 14.6655929,87 C14.1256559,86.9992691 13.4730807,87.4032822 13.3829701,87.9836852 L13.3829701,87.9836852 Z" id="路径" fill="#9E9E9E" fill-rule="nonzero"></path>
                <path d="M9.71413806,65.0779706 C9.34863084,65.0173537 8.96336648,64.9428112 8.59621283,65.0681408 C8.42169136,65.1263003 8.25210919,65.1959279 8.08581987,65.2770235 C7.62399656,65.6382677 7.58695191,65.6628422 7.97550913,65.3491085 C7.36303757,65.6325337 7,66.4017135 7,67.0414679 C7,67.9130412 7.60094655,68.7002423 8.44556458,68.9312419 C9.29759155,69.1646991 10.2237078,68.7887102 10.66989,68.0301793 C11.0905526,67.3158825 11.0288115,66.2198627 10.3620078,65.6554698 C10.3463668,65.6423635 10.3307257,65.6292571 10.3159078,65.6169699 C10.5003079,66.0584906 10.6838847,66.5008304 10.8682847,66.9431702 C10.8699312,66.9185958 10.8715776,66.8940213 10.8740472,66.8694469 C10.7892561,67.1799039 10.7052883,67.4895418 10.6204972,67.7999988 C10.4583239,67.9548178 10.2953275,68.1096367 10.132331,68.2644556 C10.6451936,67.8901051 11,67.4231908 11,66.7588619 C11.0008223,66.044565 10.4723186,65.2033002 9.71413806,65.0779706 L9.71413806,65.0779706 Z" id="路径" fill="#9E9E9E" fill-rule="nonzero"></path>
                <path d="M1.64320902,65.0014932 C0.714257777,65.0502635 0.0110172631,65.5989302 6.86083921e-05,66.6170117 C-0.00751122949,67.3712106 0.614035477,68 1.33664669,68 C2.12073881,68 2.60247961,67.3668561 2.67406697,66.6170117 C2.62774574,66.7938042 2.58226671,66.9697259 2.53594548,67.1456476 C2.37508448,67.3119894 2.21422347,67.4783312 2.05336247,67.644673 C1.50171871,67.7535355 1.36528163,67.8084021 1.64320902,67.8075312 C2.38266431,67.8371418 3,67.1473894 3,66.4045122 C3,65.6686021 2.38266431,64.9631736 1.64320902,65.0014932 L1.64320902,65.0014932 Z" id="路径" fill="#9E9E9E" fill-rule="nonzero"></path>
                <path d="M13.5,50 C15.5,50 15.5,47 13.5,47 C11.5,47 11.5,50 13.5,50 L13.5,50 Z" id="路径" fill="#9E9E9E" fill-rule="nonzero"></path>
                <path d="M26.5,30 C27.3175904,30 28,29.3175904 28,28.5 C28,27.6824096 27.3175904,27 26.5,27 C25.6824096,27 25,27.6824096 25,28.5 C25,29.3175904 25.6824096,30 26.5,30 L26.5,30 Z" id="路径" fill="#9E9E9E" fill-rule="nonzero"></path>
                <path d="M20,23 C21.3333333,23 21.3333333,21 20,21 C18.6666667,21 18.6666667,23 20,23 L20,23 Z" id="路径" fill="#9E9E9E" fill-rule="nonzero"></path>
                <path d="M40.7401997,18.7606962 C41.0657656,18.9033494 41.3825324,19.0751637 41.7536934,18.9648242 C42.1784489,18.838722 42.5664082,18.6196193 42.797584,18.2294905 C43.465514,17.1056043 42.3720286,15.7082339 41.099362,16.0534388 C40.593815,16.1897868 40.1874576,16.5901614 40.0490721,17.0882653 C39.8858893,17.6738526 40.1330633,18.4966697 40.7401997,18.7606962 L40.7401997,18.7606962 Z" id="路径" fill="#9E9E9E" fill-rule="nonzero"></path>
            </g>
        </g>
    </g>
</svg>