<?xml version="1.0" encoding="UTF-8"?>
<svg width="19px" height="19px" viewBox="0 0 19 19" version="1.1" xmlns="http://www.w3.org/2000/svg" xmlns:xlink="http://www.w3.org/1999/xlink">
    <title>形状</title>
    <g id="2021/1/11" stroke="none" stroke-width="1" fill="none" fill-rule="evenodd">
        <g id="05.Main-interface" transform="translate(-294.000000, -14.000000)" fill="#818181" fill-rule="nonzero">
            <g id="编组" transform="translate(294.000000, 14.000000)">
                <path d="M17.6267908,4.07412387 L15.4199096,6.28917484 L13.2677122,5.89851329 L12.8810198,3.74596817 L15.0879009,1.53091719 C14.5918409,1.03477703 13.8848577,0.808193332 13.3614558,0.83553964 C12.8341479,0.862885948 11.7092244,1.15978872 10.8381899,2.08565659 C9.99449729,2.97636492 9.10783883,4.6366765 9.89294169,6.480599 C9.98668532,6.70327608 10.0921469,6.99627224 9.77966814,7.30880148 C9.46328341,7.62133072 1.38180169,15.2314177 1.38180169,15.2314177 C0.624040722,15.8838224 0.678724503,17.0909666 1.37789571,17.7941574 C2.08878487,18.4934416 3.28792208,18.5364143 3.94022147,17.7824376 C3.94022147,17.7824376 11.4865833,9.74262292 11.8576518,9.37930768 C12.1896605,9.0550586 12.4865153,9.16444383 12.6857205,9.26601583 C14.076251,9.98483308 16.0565851,9.3597746 17.083859,8.33233473 C18.1111329,7.30489486 18.2986201,6.31261453 18.329868,5.80475452 C18.3611159,5.30080113 18.1853466,4.63276988 17.6267908,4.07412387 Z M3.15121263,16.8995425 C2.90513561,17.1417526 2.5067252,17.1417526 2.26455417,16.8995425 C2.02238314,16.6534257 2.02238314,16.2549509 2.26455417,16.0127408 C2.51063118,15.7705306 2.90904159,15.7705306 3.15121263,16.0127408 C3.39338366,16.2588575 3.39338366,16.6573323 3.15121263,16.8995425 Z" id="形状"></path>
            </g>
        </g>
    </g>
</svg>