<?xml version="1.0" encoding="UTF-8"?>
<svg width="25px" height="15px" viewBox="0 0 25 15" version="1.1" xmlns="http://www.w3.org/2000/svg" xmlns:xlink="http://www.w3.org/1999/xlink">
    <title>152</title>
    <g id="2021/1/11" stroke="none" stroke-width="1" fill="none" fill-rule="evenodd">
        <g id="03.login" transform="translate(-316.000000, -234.000000)">
            <g id="152" transform="translate(316.000000, 234.000000)">
                <ellipse id="s_icon_12" fill="#111111" cx="12.5" cy="10.5" rx="12.5" ry="4.5"></ellipse>
                <g id="Show" transform="translate(3.000000, 0.000000)">
                    <path d="M9,0 C12.8659932,-7.10171439e-16 16,3.13400675 16,7 L16,14 L16,14 L2,14 L2,7 C2,3.13400675 5.13400675,7.10171439e-16 9,0 Z" id="s_icon_11" fill="#D8D8D8"></path>
                    <circle id="s_icon_10" fill="#292929" cx="5.5" cy="5.5" r="1.5"></circle>
                    <circle id="s_icon_9" fill="#292929" cx="10.5" cy="5.5" r="1.5"></circle>
                    <path d="M6,9.11173183 C6.83333333,9.62942272 7.66666667,9.88826817 8.5,9.88826817 C9.33333333,9.88826817 10.1666667,9.62942272 11,9.11173183" id="s_icon_8" stroke="#292929" stroke-linecap="round" stroke-linejoin="round"></path>
                    <line x1="2" y1="13" x2="0.5" y2="12.5" id="s_icon_7" stroke="#D8D8D8" stroke-width="2" stroke-linecap="round" stroke-linejoin="round"></line>
                    <line x1="17" y1="12.5" x2="13" y2="13" id="s_icon_6" stroke="#D8D8D8" stroke-width="2" stroke-linecap="round" stroke-linejoin="round"></line>
                </g>
            </g>
        </g>
    </g>
</svg>